<mxfile host="Electron" modified="2024-02-04T11:05:52.400Z" agent="Mozilla/5.0 (Macintosh; Intel Mac OS X 10_15_7) AppleWebKit/537.36 (KHTML, like Gecko) draw.io/23.0.2 Chrome/120.0.6099.109 Electron/28.1.0 Safari/537.36" etag="ARGqFbtl9IDHuUHFrUVD" version="23.0.2" type="device">
  <diagram name="Page-1" id="I6phdSStACSzNRaf9MgW">
    <mxGraphModel dx="1311" dy="905" grid="1" gridSize="10" guides="1" tooltips="1" connect="1" arrows="1" fold="1" page="1" pageScale="1" pageWidth="850" pageHeight="1100" math="0" shadow="0">
      <root>
        <mxCell id="0" />
        <mxCell id="1" parent="0" />
        <mxCell id="0uy8gQg5VM6Hy0kcx16f-3" value="" style="sketch=0;outlineConnect=0;gradientColor=none;html=1;whiteSpace=wrap;fontSize=12;fontStyle=0;strokeColor=#858B94;fillColor=none;verticalAlign=top;align=left;spacingLeft=30;fontColor=#858B94;dashed=0;" vertex="1" parent="1">
          <mxGeometry x="480" y="80" width="680" height="450" as="geometry" />
        </mxCell>
        <mxCell id="0uy8gQg5VM6Hy0kcx16f-24" value="" style="rounded=0;whiteSpace=wrap;html=1;fillColor=none;" vertex="1" parent="1">
          <mxGeometry x="520" y="140" width="610" height="360" as="geometry" />
        </mxCell>
        <mxCell id="0uy8gQg5VM6Hy0kcx16f-4" value="On-Premise" style="sketch=0;outlineConnect=0;gradientColor=none;html=1;whiteSpace=wrap;fontSize=12;fontStyle=0;shape=mxgraph.aws4.group;grIcon=mxgraph.aws4.group_on_premise;strokeColor=#858B94;fillColor=none;verticalAlign=top;align=left;spacingLeft=30;fontColor=#858B94;dashed=0;" vertex="1" parent="1">
          <mxGeometry x="40" y="80" width="280" height="450" as="geometry" />
        </mxCell>
        <mxCell id="0uy8gQg5VM6Hy0kcx16f-7" value="" style="sketch=0;outlineConnect=0;gradientColor=none;html=1;whiteSpace=wrap;fontSize=12;fontStyle=0;strokeColor=#858B94;fillColor=none;verticalAlign=top;align=left;spacingLeft=30;fontColor=#858B94;dashed=0;" vertex="1" parent="1">
          <mxGeometry x="50" y="170" width="260" height="340" as="geometry" />
        </mxCell>
        <mxCell id="0uy8gQg5VM6Hy0kcx16f-2" value="" style="image;sketch=0;aspect=fixed;html=1;points=[];align=center;fontSize=12;image=img/lib/mscae/Docker.svg;" vertex="1" parent="1">
          <mxGeometry x="70" y="280" width="36.59" height="30" as="geometry" />
        </mxCell>
        <mxCell id="0uy8gQg5VM6Hy0kcx16f-6" value="" style="verticalLabelPosition=bottom;html=1;verticalAlign=top;align=center;strokeColor=none;fillColor=#00BEF2;shape=mxgraph.azure.azure_instance;" vertex="1" parent="1">
          <mxGeometry x="480" y="80" width="30" height="30" as="geometry" />
        </mxCell>
        <mxCell id="0uy8gQg5VM6Hy0kcx16f-9" value="" style="sketch=0;outlineConnect=0;gradientColor=none;html=1;whiteSpace=wrap;fontSize=12;fontStyle=0;strokeColor=#858B94;fillColor=none;verticalAlign=top;align=left;spacingLeft=30;fontColor=#858B94;dashed=0;rounded=0;" vertex="1" parent="1">
          <mxGeometry x="60" y="220" width="240" height="270" as="geometry" />
        </mxCell>
        <mxCell id="0uy8gQg5VM6Hy0kcx16f-8" value="" style="aspect=fixed;sketch=0;html=1;dashed=0;whitespace=wrap;fillColor=#2875E2;strokeColor=#ffffff;points=[[0.005,0.63,0],[0.1,0.2,0],[0.9,0.2,0],[0.5,0,0],[0.995,0.63,0],[0.72,0.99,0],[0.5,1,0],[0.28,0.99,0]];shape=mxgraph.kubernetes.icon2;kubernetesLabel=1;prIcon=pod" vertex="1" parent="1">
          <mxGeometry x="60" y="220" width="41.67" height="40" as="geometry" />
        </mxCell>
        <mxCell id="0uy8gQg5VM6Hy0kcx16f-11" value="" style="editableCssRules=.*;html=1;shape=image;verticalLabelPosition=bottom;labelBackgroundColor=#ffffff;verticalAlign=top;aspect=fixed;imageAspect=0;image=data:image/svg+xml,PHN2ZyB4bWxucz0iaHR0cDovL3d3dy53My5vcmcvMjAwMC9zdmciIHhtbG5zOnY9Imh0dHBzOi8vdmVjdGEuaW8vbmFubyIgd2lkdGg9IjcwMi44NDYzMTM0NzY1NjI1IiBoZWlnaHQ9IjY4MS45NjcxMDIwNTA3ODEyIiB2aWV3Qm94PSIxMC4wMDEwMjYxNTM1NjQ0NTMgMTAuMDAwOTMzNjQ3MTU1NzYyIDcwMi44NDYzMTM0NzY1NjI1IDY4MS45NjcxMDIwNTA3ODEyIj4mI3hhOwk8c3R5bGUgdHlwZT0idGV4dC9jc3MiPiYjeGE7CS5zdDB7ZmlsbDojMzI2Y2U1O30mI3hhOwkuc3Qxe2ZpbGw6I2ZmZjt9JiN4YTsJPC9zdHlsZT4mI3hhOwk8cGF0aCBjbGFzcz0ic3QwIiBkPSJNMzU4Ljk4NyAxMC4wNmMtNi4yMTMuMzEzLTEyLjMwMSAxLjg1NC0xNy45MDYgNC41MzFMOTYuNzM3IDEzMS4zNDJjLTEyLjgxMSA2LjExOC0yMi4xMTYgMTcuNjg5LTI1LjI4MSAzMS40MzhsLTYwLjI4MSAyNjIuMjVjLTIuODEyIDEyLjIwNy0uNTI0IDI1LjAyNCA2LjM0NCAzNS41MzFhNDYuMzUgNDYuMzUgMCAwIDAgMi42NTYgMy42ODhsMTY5LjEyNSAyMTAuMjgxYzguODY4IDExLjAyMiAyMi4zMTMgMTcuNDQgMzYuNTMxIDE3LjQzOGwyNzEuMjE5LS4wNjJjMTQuMjEyLjAxIDI3LjY1Ny02LjM5NiAzNi41MzEtMTcuNDA2bDE2OS4wNjMtMjEwLjMxM2M4Ljg3My0xMS4wMjggMTIuMTk3LTI1LjQ2NCA5LjAzMS0zOS4yMTlsLTYwLjM3NS0yNjIuMjVjLTMuMTY1LTEzLjc0OC0xMi40Ny0yNS4zMTktMjUuMjgxLTMxLjQzN0wzODEuNjQzIDE0LjU5MmMtNy4wNS0zLjM2OC0xNC44NDEtNC45MjYtMjIuNjU2LTQuNTMxeiIvPiYjeGE7CTxwYXRoIGNsYXNzPSJzdDEgc3QyIiBkPSJNMzYxLjQwOCA5OS4zMDhjLTguMDc3LjAwMS0xNC42MjYgNy4yNzYtMTQuNjI1IDE2LjI1IDAgLjEzOC4wMjguMjY5LjAzMS40MDYtLjAxMiAxLjIxOS0uMDcxIDIuNjg4LS4wMzEgMy43NS4xOTMgNS4xNzYgMS4zMjEgOS4xMzcgMiAxMy45MDYgMS4yMyAxMC4yMDcgMi4yNjEgMTguNjY3IDEuNjI1IDI2LjUzMS0uNjE5IDIuOTY1LTIuODAzIDUuNjc3LTQuNzUgNy41NjNsLS4zNDQgNi4xODhjLTguNzc3LjcyNy0xNy42MTIgMi4wNTktMjYuNDM3IDQuMDYzLTM3Ljk3NSA4LjYyMi03MC42NyAyOC4xODMtOTUuNTYyIDU0LjU5NC0xLjYxNS0xLjEwMi00LjQ0MS0zLjEyOS01LjI4MS0zLjc1LTIuNjExLjM1My01LjI1IDEuMTU4LTguNjg3LS44NDQtNi41NDUtNC40MDYtMTIuNTA2LTEwLjQ4Ny0xOS43MTktMTcuODEyLTMuMzA1LTMuNTA0LTUuNjk4LTYuODQxLTkuNjI1LTEwLjIxOS0uODkyLS43NjctMi4yNTMtMS44MDUtMy4yNS0yLjU5NC0zLjA3LTIuNDQ4LTYuNjkxLTMuNzI0LTEwLjE4Ny0zLjg0NC00LjQ5Ni0uMTU0LTguODI0IDEuNjA0LTExLjY1NiA1LjE1Ni01LjAzNSA2LjMxNS0zLjQyMyAxNS45NjggMy41OTQgMjEuNTYzLjA3MS4wNTcuMTQ3LjEwMS4yMTkuMTU2Ljk2NC43ODIgMi4xNDUgMS43ODMgMy4wMzEgMi40MzggNC4xNjcgMy4wNzcgNy45NzMgNC42NTEgMTIuMTI1IDcuMDk0IDguNzQ3IDUuNDAyIDE1Ljk5OCA5Ljg4MSAyMS43NSAxNS4yODEgMi4yNDYgMi4zOTQgMi42MzkgNi42MTMgMi45MzggOC40MzhsNC42ODggNC4xODhjLTI1LjA5MyAzNy43NjQtMzYuNzA3IDg0LjQwOS0yOS44NDQgMTMxLjkzOGwtNi4xMjUgMS43ODFjLTEuNjE0IDIuMDg1LTMuODk1IDUuMzY1LTYuMjgxIDYuMzQ0LTcuNTI1IDIuMzctMTUuOTk0IDMuMjQxLTI2LjIxOSA0LjMxMy00LjguMzk5LTguOTQyLjE2MS0xNC4wMzEgMS4xMjUtMS4xMi4yMTItMi42ODEuNjE5LTMuOTA2LjkwNi0uMDQzLjAwOS0uMDgyLjAyMi0uMTI1LjAzMS0uMDY3LjAxNS0uMTU1LjA0OC0uMjE5LjA2My04LjYyIDIuMDgzLTE0LjE1OCAxMC4wMDYtMTIuMzc1IDE3LjgxM3MxMC4yMDMgMTIuNTU3IDE4Ljg3NSAxMC42ODhjLjA2My0uMDE0LjE1NC0uMDE3LjIxOS0uMDMxLjA5OC0uMDIyLjE4NC0uMDcuMjgxLS4wOTQgMS4yMDktLjI2NSAyLjcyNC0uNTYxIDMuNzgxLS44NDQgNS4wMDMtMS4zNCA4LjYyNy0zLjMwOCAxMy4xMjUtNS4wMzEgOS42NzctMy40NzEgMTcuNjkyLTYuMzcgMjUuNS03LjUgMy4yNjEtLjI1NSA2LjY5NyAyLjAxMiA4LjQwNiAyLjk2OWw2LjM3NS0xLjA5NGMxNC42NyA0NS40ODMgNDUuNDE0IDgyLjI0NSA4NC4zNDQgMTA1LjMxMmwtMi42NTYgNi4zNzVjLjk1NyAyLjQ3NSAyLjAxMyA1LjgyNSAxLjMgOC4yNjktMi44MzkgNy4zNjEtNy43MDEgMTUuMTMxLTEzLjIzOCAyMy43OTMtMi42ODEgNC4wMDItNS40MjUgNy4xMDgtNy44NDQgMTEuNjg4LS41NzkgMS4wOTYtMS4zMTYgMi43NzktMS44NzUgMy45MzgtMy43NTkgOC4wNDItMS4wMDIgMTcuMzA1IDYuMjE5IDIwLjc4MSA3LjI2NiAzLjQ5OCAxNi4yODQtLjE5MSAyMC4xODctOC4yNS4wMDYtLjAxMS4wMjYtLjAyLjAzMS0uMDMxcy0uMDA0LS4wMjMgMC0uMDMxYy41NTYtMS4xNDMgMS4zNDQtMi42NDQgMS44MTMtMy43MTkgMi4wNzItNC43NDcgMi43NjItOC44MTUgNC4yMTktMTMuNDA2IDMuODctOS43MiA1Ljk5Ni0xOS45MTkgMTEuMzIzLTI2LjI3NCAxLjQ1OS0xLjc0IDMuODM3LTIuNDA5IDYuMzAyLTMuMDdsMy4zMTMtNmMzMy45MzggMTMuMDI3IDcxLjkyNyAxNi41MjIgMTA5Ljg3NSA3LjkwNmExODkuNzcgMTg5Ljc3IDAgMCAwIDI1LjA5NC03LjU2MmwzLjEyNSA1LjYyNWMyLjUwNi44MTUgNS4yNCAxLjIzNiA3LjQ2OSA0LjUzMSAzLjk4NSA2LjgwOSA2LjcxMSAxNC44NjQgMTAuMDMxIDI0LjU5NCAxLjQ1NyA0LjU5MSAyLjE3OCA4LjY1OSA0LjI1IDEzLjQwNi40NzIgMS4wODIgMS4yNTYgMi42MDUgMS44MTMgMy43NSAzLjg5NSA4LjA4NSAxMi45NDIgMTEuNzg3IDIwLjIxOSA4LjI4MSA3LjIxOS0zLjQ3OCA5Ljk4LTEyLjc0IDYuMjE5LTIwLjc4MWwtMS45MDYtMy45MzdjLTIuNDE5LTQuNTgtNS4xNjMtNy42NTQtNy44NDQtMTEuNjU2LTUuNTM3LTguNjYyLTEwLjEzLTE1Ljg1OC0xMi45NjktMjMuMjE5LTEuMTg3LTMuNzk3LjItNi4xNTggMS4xMjUtOC42MjUtLjU1NC0uNjM1LTEuNzM5LTQuMjItMi40MzctNS45MDYgNDAuNDU3LTIzLjg4OCA3MC4yOTktNjIuMDIxIDg0LjMxMy0xMDYuMDYyIDEuODkyLjI5NyA1LjE4Mi44NzkgNi4yNSAxLjA5NCAyLjItMS40NTEgNC4yMjItMy4zNDQgOC4xODgtMy4wMzEgNy44MDggMS4xMjkgMTUuODIzIDQuMDMgMjUuNSA3LjUgNC40OTggMS43MjMgOC4xMjIgMy43MjMgMTMuMTI1IDUuMDYzIDEuMDU3LjI4MyAyLjU3Mi41NDcgMy43ODEuODEzLjA5Ny4wMjQuMTgzLjA3MS4yODEuMDk0LjA2NS4wMTUuMTU2LjAxNy4yMTkuMDMxIDguNjcyIDEuODY3IDE3LjA5NC0yLjg3OSAxOC44NzUtMTAuNjg3cy0zLjc1NC0xNS43MzItMTIuMzc1LTE3LjgxMmMtMS4yNTQtLjI4NS0zLjAzMi0uNzY5LTQuMjUtMS01LjA4OS0uOTY0LTkuMjMxLS43MjYtMTQuMDMxLTEuMTI1LTEwLjIyNS0xLjA3MS0xOC42OTMtMS45NDMtMjYuMjE5LTQuMzEyLTMuMDY4LTEuMTktNS4yNTEtNC44NDEtNi4zMTMtNi4zNDRsLTUuOTA2LTEuNzE5YzMuMDYyLTIyLjE1NCAyLjIzNy00NS4yMTEtMy4wNjItNjguMjgxLTUuMzQ4LTIzLjI4NS0xNC44LTQ0LjU4MS0yNy40MDYtNjMuMzQ0bDUuMTg4LTQuNjU2Yy4yMzctMi42MjQuMDMzLTUuMzc2IDIuNzUtOC4yODEgNS43NTEtNS40MDEgMTMuMDAzLTkuODc5IDIxLjc1LTE1LjI4MSA0LjE1Mi0yLjQ0MyA3Ljk5LTQuMDE3IDEyLjE1Ni03LjA5NC45NDItLjY5NiAyLjIyOS0xLjc5OCAzLjIxOS0yLjU5NCA3LjAxNS01LjU5NiA4LjYzMS0xNS4yNDggMy41OTQtMjEuNTYycy0xNC43OTctNi45MDktMjEuODEyLTEuMzEyYy0uOTk5Ljc5MS0yLjM1NCAxLjgyMy0zLjI1IDIuNTk0LTMuOTI3IDMuMzc4LTYuMzUxIDYuNzE0LTkuNjU2IDEwLjIxOS03LjIxMiA3LjMyNi0xMy4xNzQgMTMuNDM4LTE5LjcxOSAxNy44NDQtMi44MzYgMS42NTEtNi45OSAxLjA4LTguODc1Ljk2OWwtNS41NjIgMy45NjljLTMxLjcxOS0zMy4yNjEtNzQuOTA1LTU0LjUyNS0xMjEuNDA2LTU4LjY1NmwtLjM0NC02LjUzMWMtMS45MDQtMS44MjItNC4yMDMtMy4zNzctNC43ODEtNy4zMTItLjYzNi03Ljg2NC40MjYtMTYuMzI1IDEuNjU2LTI2LjUzMS42NzktNC43NjkgMS44MDctOC43MyAyLTEzLjkwNi4wNDQtMS4xNzctLjAyNi0yLjg4NC0uMDMxLTQuMTU2LS4wMDEtOC45NzQtNi41NDgtMTYuMjUxLTE0LjYyNS0xNi4yNXptLTE4LjMxMiAxMTMuNDM4bC00LjM0NCA3Ni43MTktLjMxMi4xNTZjLS4yOTEgNi44NjMtNS45NCAxMi4zNDQtMTIuODc1IDEyLjM0NGExMi44MiAxMi44MiAwIDAgMS03LjU5NC0yLjQ2OWwtLjEyNS4wNjMtNjIuOTA2LTQ0LjU5NGMxOS4zMzQtMTkuMDExIDQ0LjA2My0zMy4wNiA3Mi41NjItMzkuNTMxIDUuMjA2LTEuMTgyIDEwLjQxLTIuMDU5IDE1LjU5NC0yLjY4N3ptMzYuNjU2IDBjMzMuMjczIDQuMDkyIDY0LjA0NSAxOS4xNTkgODcuNjI1IDQyLjI1bC02Mi41IDQ0LjMxMy0uMjE5LS4wOTRhMTIuOTEgMTIuOTEgMCAwIDEtMTcuNjg3LTIuMzc1Yy0xLjc3MS0yLjIyMS0yLjcwMS00LjgzMi0yLjgxMi03LjQ2OWwtLjA2Mi0uMDMxek0yMzIuMTI2IDI4My42Mmw1Ny40MzcgNTEuMzc1LS4wNjIuMzEzYTEyLjg4IDEyLjg4IDAgMCAxIDEuNjI1IDE3Ljc1IDEyLjg5IDEyLjg5IDAgMCAxLTYuNjg3IDQuNDA2bC0uMDYyLjI1LTczLjYyNSAyMS4yNWMtMy43NDctMzQuMjY1IDQuMzI5LTY3LjU3NCAyMS4zNzUtOTUuMzQ0em0yNTguMTU2LjAzMWM4LjUzNCAxMy44MzMgMTQuOTk3IDI5LjI4MiAxOC44NDQgNDYuMDMxIDMuODAxIDE2LjU0OCA0Ljc1NSAzMy4wNjcgMy4xODggNDkuMDMxbC03NC0yMS4zMTItLjA2Mi0uMzEyYy02LjYyNy0xLjgxMS0xMC42OTktOC41NTItOS4xNTYtMTUuMzEyLjYzMi0yLjc3IDIuMTAyLTUuMTEzIDQuMDk0LTYuODQ0bC0uMDMxLS4xNTYgNTcuMTI1LTUxLjEyNXptLTE0MC42NTYgNTUuMzEzaDIzLjUzMWwxNC42MjUgMTguMjgxLTUuMjUgMjIuODEzLTIxLjEyNSAxMC4xNTYtMjEuMTg3LTEwLjE4Ny01LjI1LTIyLjgxMnptNzUuNDM4IDYyLjU2M2ExMi44MyAxMi44MyAwIDAgMSAyLjk2OS4yMTlsLjEyNS0uMTU2IDc2LjE1NiAxMi44NzVjLTExLjE0NiAzMS4zMTMtMzIuNDczIDU4LjQ0LTYwLjk2OSA3Ni41OTRsLTI5LjU2Mi03MS40MDYuMDk0LS4xMjVjLTIuNzE2LTYuMzEuMDAyLTEzLjcxIDYuMjUtMTYuNzE5IDEuNi0uNzcgMy4yNzEtMS4xOTcgNC45MzgtMS4yODF6bS0xMjcuOTA2LjMxM2ExMi45IDEyLjkgMCAwIDEgMTIuMzc1IDEwLjAzMSAxMi43NyAxMi43NyAwIDAgMS0uNzE5IDcuOTM4bC4yMTkuMjgxLTI5LjI1IDcwLjY4OGMtMjcuMzQ3LTE3LjU0OS00OS4xMjktNDMuODI0LTYwLjc4MS03Ni4wNjJsNzUuNS0xMi44MTIuMTI1LjE1NmMuODQ1LS4xNTUgMS43MDEtLjIzIDIuNTMxLS4yMTl6bTYzLjc4MSAzMC45NjljMi4wMjQtLjA3NCA0LjA3OS4zNDEgNi4wMzEgMS4yODEgMi41NiAxLjIzMyA0LjUzNyAzLjE3MyA1Ljc4MSA1LjVoLjI4MWwzNy4yMTkgNjcuMjVjLTQuODMgMS42MTktOS43OTYgMy4wMDMtMTQuODc1IDQuMTU2LTI4LjQ2NSA2LjQ2My01Ni44MzkgNC41MDUtODIuNTMxLTQuMjVsMzcuMTI1LTY3LjEyNWguMDYzYTEyLjkxIDEyLjkxIDAgMCAxIDEwLjkwNi02LjgxMnoiIHN0cm9rZT0ibm9uZSIgc3Ryb2tlLXdpZHRoPSIuMjUiLz4mI3hhOzwvc3ZnPg==;fontColor=default;" vertex="1" parent="1">
          <mxGeometry x="50" y="170" width="40" height="38" as="geometry" />
        </mxCell>
        <mxCell id="0uy8gQg5VM6Hy0kcx16f-13" value="" style="sketch=0;outlineConnect=0;gradientColor=none;html=1;whiteSpace=wrap;fontSize=12;fontStyle=0;strokeColor=#858B94;fillColor=none;verticalAlign=top;align=left;spacingLeft=30;fontColor=#858B94;dashed=0;rounded=1;" vertex="1" parent="1">
          <mxGeometry x="70" y="280" width="100" height="190" as="geometry" />
        </mxCell>
        <mxCell id="0uy8gQg5VM6Hy0kcx16f-14" value="" style="sketch=0;outlineConnect=0;gradientColor=none;html=1;whiteSpace=wrap;fontSize=12;fontStyle=0;strokeColor=#858B94;fillColor=none;verticalAlign=top;align=left;spacingLeft=30;fontColor=#858B94;dashed=0;rounded=1;" vertex="1" parent="1">
          <mxGeometry x="190" y="280" width="100" height="190" as="geometry" />
        </mxCell>
        <mxCell id="0uy8gQg5VM6Hy0kcx16f-15" value="" style="image;sketch=0;aspect=fixed;html=1;points=[];align=center;fontSize=12;image=img/lib/mscae/Docker.svg;" vertex="1" parent="1">
          <mxGeometry x="190" y="280" width="36.59" height="30" as="geometry" />
        </mxCell>
        <mxCell id="0uy8gQg5VM6Hy0kcx16f-36" style="edgeStyle=orthogonalEdgeStyle;rounded=0;orthogonalLoop=1;jettySize=auto;html=1;" edge="1" parent="1" source="0uy8gQg5VM6Hy0kcx16f-16" target="0uy8gQg5VM6Hy0kcx16f-17">
          <mxGeometry relative="1" as="geometry" />
        </mxCell>
        <mxCell id="0uy8gQg5VM6Hy0kcx16f-16" value="PostgreSQL" style="image;sketch=0;aspect=fixed;html=1;points=[];align=center;fontSize=12;image=img/lib/mscae/Azure_Database_for_PostgreSQL_servers.svg;" vertex="1" parent="1">
          <mxGeometry x="101" y="350" width="38" height="50" as="geometry" />
        </mxCell>
        <mxCell id="0uy8gQg5VM6Hy0kcx16f-17" value="Data Extractor" style="sketch=0;outlineConnect=0;fontColor=#232F3E;gradientColor=none;fillColor=#232F3D;strokeColor=none;dashed=0;verticalLabelPosition=bottom;verticalAlign=top;align=center;html=1;fontSize=12;fontStyle=0;aspect=fixed;pointerEvents=1;shape=mxgraph.aws4.traditional_server;" vertex="1" parent="1">
          <mxGeometry x="218" y="336" width="45" height="78" as="geometry" />
        </mxCell>
        <mxCell id="0uy8gQg5VM6Hy0kcx16f-37" style="edgeStyle=orthogonalEdgeStyle;rounded=0;orthogonalLoop=1;jettySize=auto;html=1;endArrow=none;endFill=0;startArrow=none;startFill=0;exitX=0.032;exitY=0.69;exitDx=0;exitDy=0;exitPerimeter=0;" edge="1" parent="1" source="0uy8gQg5VM6Hy0kcx16f-18" target="0uy8gQg5VM6Hy0kcx16f-17">
          <mxGeometry relative="1" as="geometry" />
        </mxCell>
        <mxCell id="0uy8gQg5VM6Hy0kcx16f-38" style="edgeStyle=orthogonalEdgeStyle;rounded=0;orthogonalLoop=1;jettySize=auto;html=1;exitX=0.995;exitY=0.689;exitDx=0;exitDy=0;exitPerimeter=0;" edge="1" parent="1" source="0uy8gQg5VM6Hy0kcx16f-18" target="0uy8gQg5VM6Hy0kcx16f-27">
          <mxGeometry relative="1" as="geometry" />
        </mxCell>
        <mxCell id="0uy8gQg5VM6Hy0kcx16f-18" value="VPN Gateway" style="image;sketch=0;aspect=fixed;html=1;points=[];align=center;fontSize=12;image=img/lib/mscae/VPN_Gateway.svg;" vertex="1" parent="1">
          <mxGeometry x="380" y="340.5" width="45" height="50" as="geometry" />
        </mxCell>
        <mxCell id="0uy8gQg5VM6Hy0kcx16f-22" value="" style="image;aspect=fixed;html=1;points=[];align=center;fontSize=12;image=img/lib/azure2/general/Subscriptions.svg;" vertex="1" parent="1">
          <mxGeometry x="520" y="140" width="18.59" height="30" as="geometry" />
        </mxCell>
        <mxCell id="0uy8gQg5VM6Hy0kcx16f-25" value="" style="rounded=0;whiteSpace=wrap;html=1;fillColor=none;" vertex="1" parent="1">
          <mxGeometry x="550" y="190" width="550" height="280" as="geometry" />
        </mxCell>
        <mxCell id="0uy8gQg5VM6Hy0kcx16f-19" value="" style="image;aspect=fixed;html=1;points=[];align=center;fontSize=12;image=img/lib/azure2/general/Resource_Groups.svg;" vertex="1" parent="1">
          <mxGeometry x="550" y="190" width="31.88" height="30" as="geometry" />
        </mxCell>
        <mxCell id="0uy8gQg5VM6Hy0kcx16f-26" value="" style="rounded=0;whiteSpace=wrap;html=1;fillColor=none;dashed=1;" vertex="1" parent="1">
          <mxGeometry x="590" y="240" width="350" height="200" as="geometry" />
        </mxCell>
        <mxCell id="0uy8gQg5VM6Hy0kcx16f-20" value="" style="image;aspect=fixed;html=1;points=[];align=center;fontSize=12;image=img/lib/azure2/networking/Virtual_Networks.svg;" vertex="1" parent="1">
          <mxGeometry x="590" y="240" width="33.5" height="20" as="geometry" />
        </mxCell>
        <mxCell id="0uy8gQg5VM6Hy0kcx16f-40" style="edgeStyle=orthogonalEdgeStyle;rounded=0;orthogonalLoop=1;jettySize=auto;html=1;exitX=1.029;exitY=0.561;exitDx=0;exitDy=0;exitPerimeter=0;entryX=-0.028;entryY=0.61;entryDx=0;entryDy=0;entryPerimeter=0;" edge="1" parent="1" source="0uy8gQg5VM6Hy0kcx16f-28" target="0uy8gQg5VM6Hy0kcx16f-29">
          <mxGeometry relative="1" as="geometry">
            <Array as="points" />
          </mxGeometry>
        </mxCell>
        <mxCell id="0uy8gQg5VM6Hy0kcx16f-28" value="Data Factory" style="image;sketch=0;aspect=fixed;html=1;points=[];align=center;fontSize=12;image=img/lib/mscae/Data_Factory.svg;" vertex="1" parent="1">
          <mxGeometry x="740" y="345" width="50" height="50" as="geometry" />
        </mxCell>
        <mxCell id="0uy8gQg5VM6Hy0kcx16f-41" style="edgeStyle=orthogonalEdgeStyle;rounded=0;orthogonalLoop=1;jettySize=auto;html=1;entryX=0;entryY=0.5;entryDx=0;entryDy=0;" edge="1" parent="1" source="0uy8gQg5VM6Hy0kcx16f-29" target="0uy8gQg5VM6Hy0kcx16f-35">
          <mxGeometry relative="1" as="geometry">
            <Array as="points">
              <mxPoint x="1000" y="370" />
            </Array>
          </mxGeometry>
        </mxCell>
        <mxCell id="0uy8gQg5VM6Hy0kcx16f-29" value="Azure Synapse" style="image;aspect=fixed;html=1;points=[];align=center;fontSize=12;image=img/lib/azure2/databases/Azure_Synapse_Analytics.svg;" vertex="1" parent="1">
          <mxGeometry x="830" y="336.25" width="51.74" height="59.5" as="geometry" />
        </mxCell>
        <mxCell id="0uy8gQg5VM6Hy0kcx16f-30" value="" style="rounded=0;whiteSpace=wrap;html=1;fillColor=none;dashed=1;" vertex="1" parent="1">
          <mxGeometry x="600" y="280" width="100" height="150" as="geometry" />
        </mxCell>
        <mxCell id="0uy8gQg5VM6Hy0kcx16f-21" value="" style="image;aspect=fixed;html=1;points=[];align=center;fontSize=12;image=img/lib/azure2/storage/Storage_Accounts.svg;" vertex="1" parent="1">
          <mxGeometry x="600" y="283" width="30" height="24" as="geometry" />
        </mxCell>
        <mxCell id="0uy8gQg5VM6Hy0kcx16f-27" value="Blob Storage" style="image;sketch=0;aspect=fixed;html=1;points=[];align=center;fontSize=12;image=img/lib/mscae/BlobBlock.svg;" vertex="1" parent="1">
          <mxGeometry x="625" y="354" width="50" height="42" as="geometry" />
        </mxCell>
        <mxCell id="0uy8gQg5VM6Hy0kcx16f-32" value="" style="image;aspect=fixed;html=1;points=[];align=center;fontSize=12;image=img/lib/azure2/networking/Private_Endpoint.svg;" vertex="1" parent="1">
          <mxGeometry x="924" y="350" width="32.19" height="29.5" as="geometry" />
        </mxCell>
        <mxCell id="0uy8gQg5VM6Hy0kcx16f-35" value="Power BI" style="shape=image;verticalLabelPosition=bottom;labelBackgroundColor=default;verticalAlign=top;aspect=fixed;imageAspect=0;image=data:image/png,iVBORw0KGgoAAAANSUhEUgAAAwAAAAMACAYAAACTgQCOAAAABGdBTUEAALGPC/xhBQAAACBjSFJNAAB6JgAAgIQAAPoAAACA6AAAdTAAAOpgAAA6mAAAF3CculE8AAAABmJLR0QA/wD/AP+gvaeTAAAAB3RJTUUH4goPFToHJKsynwAAWhlJREFUeNrt3XucnHV99//355rZ3ZyABIRAspm55kASiFIwWgkHCeeDuxxErOfa3q29e7fVHtX2rr21t73FtvauVv1Ve/AueKqgArvKQYSAhnqKKHWBJHO4ZrJEzgRyzs5cn98fG1NAkITszl5zzev5eISHQpL9zvv67sz3vdfhKwEAAAAAAAAAAAAAAADoYkYE3WNwcHD27EwmdLOc3JbIfInHWijToZIdKvND5Tbn5/+kb5XpKbk/6QqekvsjCtQMzB5Quz0+Z/fuxj0PPbSdhAEAACgAmCFLBwcXx0HfKW7xyyR7maSXSSpICqbpS0aS7pP8JzIbszj+QaXZvE9SzNEAAACgAGCKlReXB72vdY5inSHTqyUVEzCsJ830PXf/jrvfEQfB2iiKdnG0AAAAKAB4EYqDxZdZxi+R4kskW9kFx2OHpDvNdIu537Sx0biPowgAAEABwC+Qz+ePybi9LTC93aXlXf5yqi7dYPKRJY3Gt9ZILY4wAAAABQBSUM4VXhMH/pvmfqFk2RS+xidMutFNN3gQ3FSr1Z7ksAMAAFAAesqKFSv6d23d8QaZv0fS8T300tuSfcfdR+JA10dRdD+zAQAAgAKQWicsXDh32+zZv2eud0k6mkT8J+42EgS6oRJF3xNPFgIAAKAApERQyhXeIvMPSVpEHM9ZBh6VdKN5MJKZ3X/T+vXrt5IJAAAABaDrlMPwErmuTMGNvZ20U7Lb5Loh663R9Zs2bSYSAAAACkCiLVuyZFE7yH7M5ZeTxkG710wjcRyM1pq1tZKcSAAAACgASRGUcoXfkPnfSjqEOKZcU6abLLZR9WduqVQqu4kEAACAAjAjSoOlsgXtz7npl0mjI7a6/GbzYCTT6vv6hs0bHiUSAAAACkBHlHOF17n5P0maTxozIpbsbjMf9TgeqTab64gEAACAAjDlBgcHZw9ks1fK9U7SSJSaTKMeByMLjlxwx7p16yaIBAAAgAJwUIpLiq80iz8n07GkkejJ/Hgs/3rgwQ3qz9xcqVSeIhUAAAAKwAHlU8yF7zTTX0vqJ46usm83YmWDr9ZqtQ1EAgAAQAF4XuXF5UHPtj4r6QzSSIV7JBuJA91Qr9d/IHYjBgAAFADsW/zn86tc9hVJR5NGGrEbMQAAoABgr2I+/2aT/bOkWaTRE3ZKvtbdRrNx69oN4+MPEAkAAKAA9IagFIZ/J9e7iKJnxeb6gZvfEAfBSL1ev4dIAAAABSCFVkvZTbnwn2X6VdLA0zRkupndiAEAAAUgRRYtWjRndl//tZIuZDrgF9hh8tvcg5E4o+vr9fpDRAIAACgAXaZcLh/qE+2vS34qUwEHoC3p25KPeDtzQ228tpFIAAAABSDhBgcHZw9ksl+XtJppgIPEbsQAAIACkGQrV67s2/Lo41+V/DVMAUzxN9TjbvqmYhv1rF1fq9WeJBUAAEABmFmZUhh+Qa4rOPyYZrvlWmPmN8SZzGitVmsSCQAAoAB0WClf+FvJ/4hDjxlwr5lG4jgYrTVrayU5kQAAAArAdC7+w/Dtcn2Gw44EeETym8yDkYGdc24ce2RsG5EAAAAKwBQq5oqnmcW3ShrgsCNh9u1G3Ofta9Zv2rSZSAAAAAXgICxbsmRRK8j8SNKRHHIkXCzpe2a6wduZkeqm6k+IBAAAUAAOTFDKF26R/GwON7pQJNMtFtvowCFzbh4bG9tDJAAAgALwC5Ty+f8p2Qc51Oh2Lm0P5Le7ByPqC66rVqsPkwoAAKAAPE05n1/l0p2SZTnUSFkdaEn2LTONqN2+obJpU5VMAABATxeAcrk84BOtH0o6nsOMHrBvN+Jcs7ZmjdQiEgAA0FMFoJTP/2/J/jzlx2+r5D+WVHfZo4H8USl4WK4nJcmlBZIGXD7HzI+QrCT5UsmOk5Rh+qfWIyaNxvLRebt23XzPQw9tJxIAAJDqAlBaUnqpgvY6Sf0pe2l3y/QNi21dHNvdtfFaVZNPjTkgJyxcOHdr/5yXZzJ+jmJd4KZXqjd3he4FuyTd7qYbgonsaOWByjiRAABAAUjdayrlw7WSVqXgtexx15rA/IY4kxmp1WrN6fgihUIhn4njN7vsdZJO4tsitVzS3e66ITAfqTQad4vdiAEAoAB0u1IYvkGuL3T5y9hspn9SNvuJSqXySEfzK5WO0kR8gQIfctdFJs3l2yS1Hpb8ZvNgZM7uHV/nUiEAACgAXWfFihX9u7Ztv09SsRvH765bArdPVDbVvyapPdPjOWHhwrnbZs06P5ANufQaSUfxLZNWvk2yW2QasWz2a50ungAAgALwopTz+T902Ue6cOjfCQJ7z8Z6/c4EjzEo5XInWRAMu9uQ5C8X9w2kVSzZ3WY+6nE8Um021xEJAAAUgMRZtmzZIa1du+uSjuieUftP3DN/WmvWRrsu73y+0HIblvmwZGdI6uPbKbWqLt1g8pEljca31vCIUQAAKABJUMoX/kTyv+6i5D9WjaI/VAIu9TlYxWLxsKDl58cWDweyi1w6nG+t1HrCpBvddENbujmKoi1EAgAABaDj9m76VZO0qDtG7FdXG42360U8wrMLZEq53IlPu1RoJd9mqdWW7DvuPhIHuj6KovuJBAAACkBnCkA+/z9c9okuGe51SxrRFWt65DKKpblcsaVg2MyHuFQo9diNGAAACkBHBKV8uEFSKflD9VtnzZv3mrGxsT29ONkGBwcP789kLjSzi+U6X9JhfAum1kMuGzXz0Z179tyyefPmHUQCAAAFYEqUw/B8d93UBUPd0Da9imum98kUc8VVQRAPyXWJS8uJJLV2Sf5tdxsN2tkvsxsxAAAUgINSyodfkXRZwoe51TxeVWk2x5hyz+2ZlwpptWRZUkmte800EsfBaK1ZWyt2IwYAgAKwv8IwPDrjairZ15XH5nZppVkfYbrtn+WLFx/RyvSf5RYPS3aJpENJJbWaMt1ksY2qP3NLpVLZTSQAAFAAnlcxDN9rrg8lOmDTX1ai6H8x1V50yZuVkVab62J3Dcm0hFRSa6vLbzYPRjKtvq9v2LzhUSIBAIAC8MwCkA/vNunEBA/xh/NfcsTJ69atm2CqTY1yLrciVjBkZsOSnyJ2I04rdiMGAIAC8KyF4JIlJQ8ylQQPcZd5/Aqu+5/GOVAuH+l72hcq8CG5XyjZPFJJrX2PGF1w5II7KNUAAPRgASjl8/9Tsg8mdoBu76w26//AFOuMwcHB2f1B/6kWxMNyXS5pMamk9k3rcTd9U7GNetaur9VqT5IKAAA9UQDCdZJentBY11Yb9dPF001mSlAoFF4RxPGwyYZd+iUiSa09ZrrD3W5om49GURQRCQAAKSwApVLpKLXaDyZ0/C75adVG4y6mVzIUi8WctfwCs3jYZedKGiCV1PrZpULX1Jq1uyTFRAIAQAoKQDGff5PJPpfQQD9faURvZmol06JFi+bMyQ6c7YEPyTUs6RhSSSt/VNKN5sFIZnb/TevXr99KJgAAdGkBKOfDf3Xp1xI4tF1xYMvr9XqDqdUVglIud5IFwbC7DUm+kkhSa6fka91tNBu3rt0wPv4AkQAAKABdpJQPG5JyCYzzI9VG/Y+ZVt2pvGRJKc5khm3yzMDpSvYGc3jxYnP9wM1viINgpF6v30MkAAAKQIIVCoV8EHuUvJF5yzOZUq1WazKtut8JCxfO3TEw56y9lwpdKukoUkmthkw3sxsxAIACkFDlXOF1bn5N8tb/+vdqM3oDUyqVMsVccVUQxEPuuljScUSSWjtMfpt7MBJndH29Xn+ISAAAFICZLgBheKW73pO4IE2rKlH0HaZU+i3N5YotBcNmPiTZGeJSobRqS/YjMx9VHH+p0mzeSyQAAArADCjlC7dKfnaiQnR9r9KMXsV06sEysGjpS9rZiYvc4mGTnS/pEFJJ7Zvl/S4fieNgpL6pftdkQQAAgAIw7cr58DGXDk/SmNz0B7Uo+numU29bsWJF/46tO84ILL5YsiFJIamklT8qs69bbCOZ2f0384hRAAAFYJosXbT0Je2+PY8kbVxZeXF9o1FnOuEZ83XfpUJ2heSrJAWkksoy0JKC77r7NcoGX+VBAAAACsAUKufzq1x2V8IC/HGlEZ3IVMILltfsxEWafKrQBeJSoTS710wjcRyM1pq1tZKcSAAAFIAXWwByhbe6+VWJCtD0gUoUvZ+phP0VhuGsIA5OsyAelvtrJRskldR6RPKbzIORgZ1zbhx7ZGwbkQAAKAAHUgDC8APu+otkjcpPrTYadzGV8GK/B0u53MsndyPWsKST1KUb9OEF7ZB0i8lHPZsdqVarDxMJAIAC8EIFIB/+i0u/nqAhtXdO7Dl08+bNO5hKmAqlUukoTcQXTF4q5BdKNo9UUimW7G4zH/U4Hqk2mz8UlwoBACgAz1UA8iM++XSVpIR3f6URsSkUpsXg4ODs/qD/1MlLhfQ6SYtIJbUimW6x2EYHDplz89jY2B4iAQBQACSVwvB7cr0yQUP6YrURvZFphA4ISrncSZOXCtmQ5C8XlwqlkkvbA/nt7sGI+oLruFQIANDbBSAfRpLyifmgNv1pLYquZBqh0wqFQj5o63yzeNhl50oaIJVUakv2HXcfyZjfsLHRuI9IAAC9VgCeUoIen+jy19UajS8zjTCTyuXyodrTPt8tHpbsIklHkEpq3WumEXe/odpofEdSTCQAgLQXgJakTHJGxBOAkDiZUi534tMuFVpJJKn1mEy3KbZR689cV6lUniISAEDaCkBmbwFIzvK/HSytjdc2Mo2QVMXB4rGWaV8s2ZDkp0mWJZVU2iXpdjfdEExkRysPVMaJBADQ9QVg0aJFc2b39W9P0piycXvx+k2bNjON0A1yudyCfmXO2Xup0LCk+aSSWuxGDADo/gKQy+UW9FnweJLGtLvdOmJ8fPxxphG6UKaYK64KgnhIrktcWk4kqfWw5DebByNzdu/4+j0PPbSdSACAAtAVyuXykT7RStTj8DwTzK/Vak8yjdDtyrncijgIhm1yN+JXKVH32mDK3rOk7SbdLNOIZbNfq1Qqj5AKAFAAKAAUAPS45YsXH9HK9J+191KhSyQdSiqp9OzdiNcRCQBQACgAFAD0uNVStpkrnmxBfIVcl0rKkUo6uVQ30zfYjRgAKAAUAAoA8F/fh7nciljBkJkNS75KUkAqqfSETLcqttF24DdEUbSFSACAAkABoACg18tAuXyk72lfqMCH5LpACdqkD1Nq327EcaDroyi6n0gAgAJAAQB63ODg4Oz+oP9UC+Jhub9WskFSSa2aTKMeByO5Zm3NGqlFJABAAaAAAD3uWZcKnaIu23Uc+/0u+KikG82Dkczs/pvWr1+/lUwAgAJAAQB6XKlUOkoT8QVm8RUuO1fSAKmk0i7Jv+1uo0E7+2V2IwYACgAFAIAWLVo0Z0524GyfvG9gWNIxpJJa7EYMABQACgCAZwhKudxJFgTD7jYk+UoiSa2mTDdZbKPqz9xSqVR2EwkAUAAoAECPC8MwzMR2nlk87LLzJPWTSirtMPlt7sHI3keMPkgkAEABoAAAPe6EhQvn7hiYc9beS4UukbSQVFKJ3YgBgAJAAQDwczKlXO7EyUuFdIWk44kktfY9YnTBkQvuWLdu3QSRAAAFgAIA9LiluVyxpWDYzIckO0NSH6mk8sPpcTd9U7GNetau570WACgAFAAAGhwcPHxW0He2Wzws2bCk+aSSSvt2I1Y2+GqtVttAJABAAaAAAMgUc8VVQRAPuetSScuIJLV+dqnQNbVm7S5JMZEAAAWAAgD0uGdeKqTVkmVJJY3YjRgAKAAUAADPLgOLlr6knZ24SJNPFTpf0qGkkko7JV/rbqPZuHXthvHxB4gEACgAFACgx4VhOCuIg9MsiIcV6zKZlpBKat1rpmv2PmL0h2I3YgCgAFAAAJRzuRWxgiEzG5b8lG56X8QBach0M7sRAwAFgAIA4JnvM3vaF05eKuQXSjaPVFJp327EcUbX1+v1h4gEAAWAAkABAHrc4ODg7P6g/1QL4mG5Lpe0mFRSqS3Zj8x8VHH8pUqzeS+RAKAAUAAoAABUzuVWKAiucLchyV8uLhVKK3YjBkABoABQAAA8U6FQyAdtnW8WD7vsXEkDpJLKD0h2IwZAAaAAUAAAPNOiRYvmzMkOnO2Tjxi9WNLRpJJG3pKC77r7NXt3I26SCQAKAAUAAIJSLneSBcHw3kuFVhJJat1rppE4DkZrzdpa8YhRABQACgAALMvnCy0Pzt17qdB5kvpJJZUekfwm82BkYOecG8ceGdtGJAAoABQAAD3uhIUL5+4YmHOWW3yFZEOSFpBKKu3bjbjP29es37RpM5EAoABQAAAgU8wVVwVBPOST9w0cRySpFEt2t5mPshsxAAoABQAA9lmayxVbCobNfEiyMyT1kUoqRTLdYrGNDhwy5+axsbE9RAKAAkABANDjli9efEQr03+WWzws2cWSDiOV9HFpeyC/3T0YUV9wXbVafZhUAFAAKAAAetxqKdvMFU/ee6nQZZKWkkoqtSX7jruPZMxv2Nho3EckACgAFAAAUDmXWxErGDKzYclXSQpIJZX27Uaca9bWrJFaRAKAAkABANDjli5a+pJ2duIiTW5AdoGkQ0gllR6T6TbFNmr9mesqlcpTRAKAAkABANDjwjCcFcTBaRbEw3J/rWSDpJJKuyT/truNWl/mK9VqdRORAKAAUAAA4NmXCp3STe/1OCDsRgyAAkABAIBnKpVKR2kivkCBD7nrIpPmkkoqPSz5zebByJzdO75+z0MPbScSABQACgCAHjc4ODh7VtB3jk/eNzAkaRGppNJOk3/TPRhpWTzSaDR+SiQAKAAUAAAISrncSRYEw+42JPnLxaVCafTs3YjXEQkACgAFAAAUhmGYie08s3jYZedJ6ieV9HGpbqZvsBsxQAGgAFAAAGCfExYunLtjYM5Zey8VukTSQlJJpSdkulWxjbYDvyGKoi1EAlAAKAAUAADIlHK5E592qdBKIkmlfbsRx4Guj6LofiIBKAAUAAoAAGhpLldsKRg28yHJzpDURyqpxG7EAAWAAkABAIBnGhwcPHxW0He2Wzws2bCk+aSSRv6opBvNg5HM7P6b1q9fv5VMAAoABQAAkCnmiquCIB6S6xKXlhNJKu3bjThoZ79ceaAyTiQABYACAAB41qVCWi1ZllRSid2IAQoABQAA8EzLFy8+opXpP2vvpUKXSDqUVFLpIclvMQ+uUX/mlkqlsptIAAoABQAAelwYhrOCODjNgnhYsS6TaQmppNIOk9/mHozsfcTog0QCUAAoAAAAlXO5FbGCITMblvwUsRtxGrEbMUABoAAAAJ7nfX5P+0IFPiT3CyWbRyqptO8RowuOXHDHunXrJogEoABQAACgxw0ODs7uD/pPtSAelutySYtJJZWLkMfd9E3FNupZu57PVIACQAEAAEx+BnCpUC/YtxuxssFXa7XaBiIBKAAUAACAisVizlp+gVk87LJzJQ2QSir97FKha2rN2l2SYiIBKAAUAADocYsWLZozJztwtgc+JNewpGNIJY3YjRigAFAAAAA/LyjlcidZEAy725DkK4kklXZKvtbdRrNx69oN4+MPEAlAAaAAAAC0LJ8vtDw4d++lQudJ6ieVVLrXTNfsfcToD8VuxAAFgAIAADhh4cK5OwbmnLX3UqFLJC0klVRqyHSzxTbKbsQABYACAAD4mUwxV1wVBPGQuy6WdByRpNK+3YjjjK6v1+sPEQlAAaAAAAC0NJcrthQMm/mQZGdI6iOV1GlL9iMzH1Ucf6nSbN5LJKAAUAAoAAAADQ4OHj4r6DvbLR6W7GJJh5FKKrEbMSgAFAAKAADg5zz9UqFLJS0jklQuhNiNGBQACgAFAADw8/7rUiG7QvJVkgJSSRtvScF33f2avbsRN8kEFAAKAAUAAKCli5a+pJ2duEiTTxW6QNIhpJJK95ppJI6D0VqztlY8YhQUAAoABQAAEIbhrCAOTrMgHpb7ayUbJJVUekTym8yDkYGdc24ce2RsG5GAAkABAABA5VxuRaxgyMyGJT+lmz5rsd/27Ubc5+1r1m/atJlIQAGgAAAAoFKpdJQm4gsmLxXyCyWbRyqpE0t2t5mPshsxKAAUAAAA9hkcHJzdH/SfOnmpkF4naRGppFIk0y0W2+jAIXNuHhsb20MkoABQAAAACEq53EkWBMPuNiT5y8WlQqnj0vZAfrt7MKK+4LpqtfowqYACQAEAAECFQiEftHW+WTzssnMlDZBK6rQl+467j2TMb9jYaNxHJKAAUAAAANCiRYvmzMkOnO2Tjxi9WNLRpJJK+3YjzjVra9ZILSIBBYACAABAppTLnfi0S4VWEkkqPSbTbYpt1Poz11UqlaeIBBQACgAAAFqayxXbypyz91Kh8yT1k0rq7JL82+42an2Zr1Sr1U1EAgoABQAAAOVyuQX9ypzjFg9LNixpPqmkErsRgwJAAQAA4OdkirniqiCIh+S6xKXlRJJKD0t+s3kwMmf3jq/f89BD24kEFAAKAAAAWprLFVsKhs18SNJqybKkkjo7Tf5N92CkZfFIo9H4KZGAAkABAABAyxcvPqKV6T9r76VCl0g6lFRS59m7Ea8jElAAKAAAAGi1lG3miidbEF8h16WScqSSPi7VzfQNdiMGBYACAADAMz9bc7kVsYIhMxuWfJWkgFRS5wmZblVso+3Ab4iiaAuRgAJAAQAAYPJzdk/7Qk1uQHaBpENIJXX27UYcB7o+iqL7iYQCQAGgAAAAoMHBwdn9Qf+pFsTDcn+tZIOkkkrsRkwBoABQAAAAeI7P4GdeKnRKN60fsN+rmkcl3WgejGRm99+0fv36rWRCAaAAUAAAAFCpVDpKE/EFZvEVLjtX0gCppM6+3YiDdvbLlQcq40RCAaAAUAAAANCiRYvmzMkOnO2T9w0MSzqGVFKJ3YgpABQACgAAAD8nKOVyJ1kQDLvbkOQriSSVfrYb8TXqz9xSqVR2EwkFgAIAAAAUhmGYie08s3jYZedJ6ieV1Nlh8tvcg5G9jxh9kEgoABQAAACgExYunLtjYM5Zey8VukTSQlJJHXYjpgBQAAAAwHPKlHK5EycvFdIVko4nklTa94jRBUcuuGPdunUTREIBoAAAAAAtzeWKLQXDZj4k2RmS+kgldYvNx930TcU26lm7nrUTBYACAAAAJEmDg4OHzwr6znaLhyUbljSfVFJn327EygZfrdVqG4iEAkABAAAAkpQp5oqrgiAectelkpYRSSr97FKha2rN2l2SYiKhAFAAAADAsy4V0mrJsqSSNuxGTAGgAAAAgOcqA4uWvqSdnbhIk08VOl/SoaSSOjslX+tuo9m4de2G8fEHiIQCQAEAAAAKw3BWEAenWRAPK9ZlMi0hlVS610zX7H3E6A/FbsQUAAoAAACQpHIutyJWMGRmw5Kf0k1rHey3hkw3W2yj7EZMAaAAAACAfZYODi5uZ7NDchuW/CxJs0kldZ6S6SaLbWRXPPH18fHxx4mEAkABAAAAGhwcnN0f9J9qQTws1+WSFpNK6vzsEaPXWF/mC9Vq9WEioQBQAAAAgCQFx4bhK2O3iyUfknQCkaTOhKRb3XRNLH01iqItREIBoAAAAABJUqFQyAdtnW8WD7vsXEkDpJIquyS/xtyvrDSb9xIHBYACAAAA9lm0aNGcOdmBs33yEaMXSzqaVFLDJf+mefCxSrM+qh5+khAFgAIAAACeW6aYK67ae9/AsKTjiCQ1K+D/dPf31xqNr1AAKAAUAAAA8JyW5fOFlgfn7r1U6DxJ/aTS5Qth1/csY3+ysV6/kwJAAaAAAACA53XCwoVzdwzMOcstvkKyIUkLSKWb+a2Ks39Q3VT9CQWAAkABAAAAv9BqKbspn3+1y4ZMulhSiVS60oRkH9vdnnjf+Pj4TgoABYACAAAA9svSXK7YUjBs5kOSnSGpj1S6Ss1M/60SRWsoABQACgAAADggyxcvPqKV6T/LLR6W7GJJh5FKV3CZ/mnuzp1/eM9DD22nAFAAKAAAAODFrGUG1G6fEce62CY3IMuTSuJrwMYg0Fs3RtF3KQAUAAoAAAA4uLVNLrciVjBkZsOSr5IUkEoiW0DL3f681ow+TAGgAFAAAADAlFi6aOlL2tmJizS5AdkFkg4hlYTVAPlnd01M/NbmzZt3UAAoABQAAAAwZcIwnBXEwWmTG5D5ayUbJJXEuDsrv3x9o1GnAFAAAAAApmWtVlxSXBlk4mGf3I34JCKZcY+Y/JJKo/EfFAAKAAAAwLQqlUpHaSK+QIEPuesik+aSyozYIdPl1Si6iQJAAQAAAOiIwcHB2bOCvnN88r6BIUmLSKWj9pjbWyvN+pcoABQAAACATgtKudxJFgTD7jYk+cu7aZ3Xxdpy++1qs/5PFAAKAAAAwIxZls8XWm7DMh9mN+LpXxKa6Y8qUfR/KQAUAAAAgBl3wsKFc3cMzDlr76VCl0haSCrTUAJk76g06v9MAaAAAAAAJEmmlMud+LRLhVYSyZRpm9sbKs36tRQACgAAAEAiLc3lii0Fw2Y+xKVCU2JP7DZUb9a/QQGgAAAAACTa4ODg4bOCvrPd4mHJhiXNJ5UX5SmTn1lpNH5IAaAAAAAAdIWVK1f2PfHIE2dYMLkBmUkFUjkgm9umlVEUPUgBoAAAAAB0nWdeKqTVkmVJ5QXdNWve3DPHxsb2JG1gAccGAAAAv8iGZrNWa0YfrTYa5/a1Wkeb2+slv1rSU6TzvE7ZuW37lUkcGGcADgJnAAAAQC8Lw3BWEAenWRAPK9ZlMi0hlWcvGO1Xq836VRQACgAAAEDqlPP5k2K3YZvcgGyl2I1Ykm8z95MrzeYYBYACAAAAkN4yUC4f6XvaFyrwIblfKNm8Ho7jnlnz5r4yKfcDcA8AAAAAplylUnmk2qxfVY2i1+9ut49yD86V6WOSHujBOE7YvX37nyVlMJwBOAicAQAAAHgR67pcbkWsYMjMhiU/RT1xqZC35H5ytdlcRwGgAAAAAPSsYrGYs5ZfYBYPu+xcSQNpfa0m/Xhg3txfnulLgbgECAAAADOmVqs1q836pyuNxvDOiT2Hm9vFMn1a0k/T9lpd+qUkXArEGYCDOYicAQAAAJgumVIud7IFwbBcl7i0PCWva4/F7eMrmzZVZ2oAnAEAAABAErWrzebaShS9t9KIjlOceZmZ/lLySpe/rn4F2Q/P5AA4A3AQOAMAAADQcUExVzwrsPa7XPYadekNxEFgZ2ys1++cka/NHAIAAEAXiWvN2q2VRmPY4+BVku7oyhcR+9/P1FqcAgAAAICuVNtU+361Ea12+eWSj3fZ8E8q5wpvogAAAAAAB1oEGo2vtM1eZtJnumncbv5XK1as6KcAAAAAAAcoiqItlUb065NnA7S1S4ad27V9e8fPAlAAAAAAkBq1RuMrngleIenebhivud7T6TU5BQAAAADpKgG12oa26VRJdyV9rC4tLy8pDFEAAAAAgIMQRdGWnRN7znXXLUkfaxx4R3cHpgAAAAAglTZv3rwj6M9eLOm2JI/TpFcVlhROpwAAAAAAB6lSqezOzhq4VNIPkzzOIPDfpgAAAAAAU2D9+vVb26bXSGomeJiXhWE4nwIAAAAATIEoih6MA7tC0u6EDnFWIL2BAgAAAABMkXq9/j3J/jip4zPXr1IAAAAAgClUbdQ/LummhA7v5GPz+eMoAAAAAMAUigP770robsFuNu1nASgAAAAA6Cn1er0h158nsgC4LqUAAAAAAFNsSTP6pKT7Eji0ZaXBUpkCAAAAAEyhNVLL5e9L5OCC+EIKAAAAADDFao3GVyT/QeIGZn4RBQAAAACYei6zjyRwXKsXLVo0hwIAAAAATLElUXStpEbChjVrVl/fmRQAAAAAYIqtkVpu+sfEDcztVAoAAAAAMA2yrdbVkuIkjSkI9AoKAAAAADANNoyPPyDpziSNyV2vkGQUAAAAAGA6Ftymf0/YkBaUBkslCgAAAAAwDWLppsSVkmz7lRQAAAAAYBpEURRJ2pCsBmDTch8ABQAAAACQJNdtSRqOyZdTAAAAAIDpWnCbrUvYkPIUAAAAAGDaxD9M0mhcCikAAAAAwDQZmDfvJ5K3kjIek+YuXbT0JRQAAAAAYBqMjY3tkeyBJI2pnd015ZcBUQAAAACAnzE1kzQcNwspAAAAAMB0rf9dm5I0nkA6mgIAAAAATJNY9kSSxuNucykAAAAAwDQx8+2JGk+gORQAAAAAYLoW3NLOJI3H3TkDAAAAAEyXWNqVrELCJUAAAABAz3DnEiAAAACgd3APAAAAANA73N0oAAAAAAAoAAAAAAAoAAAAAAAoAAAAAAAFAAAAAAAFAAAAAAAFAAAAAAAFAAAAAAAFAAAAAAAFAAAAAAAFAAAAAAAFAAAAAMDByRIBAAAHZ3Bw8PCBIDjOzJa7tNzNlpn7ApfNM+lQSYdJmi1pt6SnJG0z13aZPxwr2GCu9Rb4hpZ0fxRFD5IoAAoAAAAJUigUFlocnx3IznHXOTItkSTf+9/NJclkP/9H50haIEluP/s9LpnkLmUkFfNhPZDWyO12tTO3Vx6ojJM4AAoAAAAdViqVlqjVeptkr1fsL5PsZ+v8KWVSwaWCzH9N2ZZKYfifivVZa2c/TxkAQAEAAGAalcvlAW+1LlOst6vVPleyzt8753qZTB/2bOtDpXy4xtz+32FHHv7FdevWTXCEALwY3AQMAMCzrFixor+UK7zDJ1pVub4g0/kJ+MwMJJ3l5ldtefSxZjEXvueEhQvncrQAUAAAAHiRBgcHZxfD8Pd3bdseyfxTkhYndKhHm+nK7bNmRaV8/n8ODg7O5ugBoAAAAHAAivn8awYy2fvM9X8lHdMdo7aXSPbBgUxmQylXeBtHEQAFAACAF7BsyZJFxXz+GpONSsp356uwQZn/WzkMbykUCss4qgAoAAAAPIdSGL69FWTuNdnr0vB63HVuEPvdxTD8bY4uAAoAAAB7lcvlgVIYflSuz2hyk640mW2uT5Zy4XXLFy8+gqMNgAIAAOhpy/L5gk+07pLrnal+oaZLJrLZH5Xz+VUcdQAUAABATyrmiqe1ZOskvbw3XrENuuybxXz+tRx9ABQAAEBPKeXzZ5q1b5S0oMde+myTXVvKhe9mFgCgAAAAesLkT8DtRsnm9WgEJtOHS/n8XzMbAFAAAACpVgrDXzHZlyQNkIb9SSmf/9/kAFAAAABIpWMLhVfL9W+SMqSxrwT8OZcDARQAAABSp5zLrYhjv1785P85OoCuLOUKv0kQAAUAAIBUWLZkySJXcKOk+aTxPBXA4k+Ww3A1UQAUAAAAuv6zrRVkrpZpCVH8wg6QddcXlw4OLiYLgAIAAEDXKubC90k6iyT2y8J2JnvtihUr+okCoAAAANCFi//iaWb+5yRxQE7etW3bB4kBoAAAANBVli1bdohZ/DnJsqRxoOwPi0uKryAHgAIAAEDXaO3a9ReSciTxomQsiP9l5cqVfUQBUAAAAEi84mDxWMl+jyQOyglPPvooGQIUAAAAuuDDLBt/Qjzv/6DFsr9ctmTJIpIAKAAAACRWOVcYdte5JHHwTJrbCoL3kgRAAQAAILHc/E9JYUprwG+yNwBAAQAAIJFK+fxZklaRxJSa1c5m300MAAUAAIDEcbf3kMJ0BKt3hGF4NEEAFAAAABLj2DA80UznkcS0mJWJ9TZiACgAAAAkRiz9GilMI9N/k2QEAVAAAACYcaulrFy/QhLTamk5DF9FDAAFAACAGdfM58+TtJAkppdzlgWgAAAAkAQmewspdKQBXMZaAaAAAACQhM+uC4ihI448NgxPIAaAAgAAwIwp5/MnSlpAEp0Ru51DCgAFAACAGePSmaTQycCdAgBQAAAAmDkmrSaFjgZ++sqVK/sIAqAAAAAwUyvSU8igo+Y89eijZWIAKAAAAHRcqVQ6yqXDSaKzYmk5KQAUAAAAOr8Q3RMvI4XOMzMKAEABAACg8zKBKAAzwGNyBygAAADMxEJU8VJSmAGmYwkBoAAAADADDcCOIoQZMZ8IAAoAAACdZzqEEGakeR1KBgAFAACAzq//KQAzlTy5AxQAAAA6z50CMEMOkWTEAFAAAADotDlEMDPrhRMWLiR7gAIAAECHGT+Fnint+CVkD1AAAAAAAFAAAAAAAFAAAAAAAMy8LBEAwAtbtmzZIRM7JpYF5svddJxJy9w8J9c8uebJNE/Sgsnf7dsk2ylpq0tPmfxRk22UvCIPNrYC3xhF0UZJbZIFAFAAACABBgcHZ/cH/acGQXyOu53T2rX7JAsU+N7/7vv+oed4OKLNkzRP0pG29ze4dI5kkrkyLpXy+W2SvmNma+M4+HbQH3yrUqnsJnkAAAUAADokDMNZgftrze1tMq2W4gF/xkp/Ktk8See46xyzWD4RP1UKw+tM+vxgFH1zjdTiiAAAKAAAMA2KS4qvNIt/Xa43SDZ/hh40eahcb3PpbZvy4cMl+ZfM/f+rNJv3coQAAFOJm4AB9O7CP1c8rZzPj1gQf0+m/y5pfkKGdpRkv+sW/KScz4+U8vlTOFoAAAoAALxI5TBcXcqHa8zib7lsKMFDtcnx2dpiLryjsKRwOkcPAEABAID9lM/njynl81e563ZJZ3TT2M306iDwO8v5/EixWMxxNAEAFAAA+AXvdaV84Xezsvsle2s3vxCXDVk7/kkpX/iT1dzHBQCgAADAMy3N5YqlfLhW8n+QdGhKXtYhkv/1pnx4Z6FQyHOUAQAUAACQVMznXxNb8H1JJ6f0Ja4KYr+nFIa/wtEGAFAAAPSyTClf+KDJRlw6POWv9VC5vlgKw49KynDoAQAvhOtHAaTKokWL5szu679G8ot66oW73lnKh7m26Y1RFO1iJgAAng9nAACkxoojV8yb3Tdwg6SLejSCSzOu25cvXnwEswEAQAEAkGpLFy19ya45226X/Owej+Lkib6+28vl8pHMCgAABQBAKg0ODh7e7tt9u2SvIA1Jrpd5q/W1FUeumEcYAAAKAIBUCcNw1kAmc71kLyWNZ5SAV+6as/36crk8QBgAAAoAgNS8h2WkqyQ7jSie01maaP2rJCMKAAAFAEDXK+bDv5XrCpJ4fi69qZzP/wFJAAAoAAC6fPGfv9wkFrb7VQLsynI+v4okAAAUAABdqVQqLQlknyaJ/dbnss8Wi8XDiAIAQAEA0FVWS1m14i/0wA6/U60YtP0TxAAAoAAA6Cqb8oU/lfxUkjhwLn9zKZ8/kyQAgAIAAF1haS5XlPzPSOJg2MdXrlzZRw4AQAEAgMRrB8H/lTSLJA7K8U889tjvEAMAUAAAINFK+fyFcl1MEgfPXO8fHBzkHgoAoAAk3u6kDWj27Nk7mUJAR2RM9nfEMGUOG8j0/Q9iAAAKQKJVKpXtktoJGtKusbGxPUwhYPqVc4XLXVpOElPJf/+EhQvnkgMAUACSrO1SM0HjaTJ9gA4tVU3vJoUpd8SOWbPeTgwAQAFI+GB9LEELkvVMH2D6lcPwfMlXksTUi2V/JO4FAwAKQKI/rNy+naDh3MX0ATpQtt3/mBSmh0mFYwuF00gCACgACR5sPJqYsbjfwvQBplexWMxJdhZJTJ+47W8kBQCgACRWpdkck3TPTI/DpPsrjcYPmT7ANL9BxfGbxSUq0/t+Znr9ihUr+kkCACgAyf2wkv3DTI8hNn2KqQNMP3e9hRSmOWPp8J1bd55HEgBAAUisgXlzrpJUncEh/HTXnj2fZuoA06ucz58k6XiS6MAHgcUXkQIAUAASa2xsbI+5/dlMfX1ze/fmzZt3MHWA6eUSi9LOZf1qUgAACkCiVZr1L5nsyzPwKXl9pVn/LNMG6Mjb05lk0DHHl0qlo4gBACgAidYy/w2T7u/U1zPpfs8Gv8qUAabf5E2pvookOsa81eJxoABAAUi2KIq2BB6/Rq5N0/21XKp7NnNerVZ7kikDTL89O3acLGkOSXTww8DtdFIAAApA4m1oNmsZxaulad2V94dBK/vqarW6iekCdEa7zU//O82l40gBACgAXVMCPBO8ahruCXCXfXLnxJ7TKw9UxpkqQOeYtJwUOh56mRAAgALQNWq12pOVRv11Ln+dpuARoS591z14da1R/x2e+APMyGJ0GSF0XMiGYABAAei+ItBofHlJI1pubm9z152Ta/n9tkvSde7BubVGdHKtWfs20wOYMUuJoOMyO3fuDIkBANIvm7YXtEZqqVm/WtLVYRgenY3tHA/8lYq1zE0LTTpUkkzaGpuaJt1nbVurgcyaSqXyFFMCmFnLFy8+YkI6giQ6L4jjgqQNJAEAFICuFUXRg5I+u/cXgC6wq6/vyIyTw4yI7VBCAID0C4gAQKLelNrBIaQwQ+v/wOeRAgBQAACgoyxoUwBmKvvYKAAAQAEAgA4vQs0oADNWvjgDAAAUAADosJgdgGeMu5M9AFAAAKDjq1AjhBn7SCB7AKAAAAAAAKAAAAAAAKAAAGlVLpcHcrncAr5nAABAt8sSAXpdsVg8LBPHy2PpOJOWu2uZpKKkeZIWSJrnE62+PgtUyoeStEvSTklPSHpSporHqijQRsXBRmX1n7Va7UmSBQAAFAAgAQYHB2f3B/2nBkF8mrufqnZ7dSzLStJ+bkA7a++vBZr8QyeZ7f3DFkttxaV8eL9M31Zsa62dua3yQGWc5AEAAAUA6JAVK1b079q27TVu9mvmOleKZ7lL0rQ89CSQdLxcx8v8HZ5txaV8+C25fX53PHHt+Pj44xwRAABAAQCmQTmXWyEFv7Fr2/Y3S3ak+YwMI5B0hszPGMhk/6EYhjcHsf1TpVkf1X6fdAAAAKAAAM+rOFh8mWXj97nrdZqmH/O/SP3mGnbz4VI+X3G3jwf92X+sVCq7OWoAAKATeKIJUqWcz7+8FIbXWyb+sVxXJGzx/yxWNtPf+0RrQykMf0tShiMIAAAoAMB+KBaLh5XC8KMu+75cFyd74f9zcnL9YzEf/qCYK57G0QQAABQA4Bco5wpXWDu+T653dvOcNulEs/jOUhj+W6lUOoojCwAAKADA0yxfvPiIUhhe7+ZfknRMSl6WyfU2tdo/LuaK53CUAQAABQDQ5LX+e7J9P7vcJ42ONotvKYXhR1euXNnHEQcAABQA9KxSGP6Wy+4yqZDyl2pyvXPLo4/eVi6Xj+TIAwAACgB6br4W84WPy/WPkgZ652XbaT7R+vayfL7AFAAAABQA9IpMOR/+s8l/p0df/9KW7K5yPn8SUwEAAFAAkGrlcnmglA+vdenXejyKo112ezmfX8WsAAAAFACk0sqVK/t8ovVVSZeShiTpMMlGy7nc8UQBAAAoAEgbe/LRxz4l6UKi+C8uHe4W3FIoFPKkAQAAKABIjXIYvp/Lfp7X4iD2r+dyuQVEAQAAKADoesV8/tfd9Rck8Qsd36fgM5KMKAAAAAUAXau0pPRSk32cJPaD6ZJSLvw9ggAAABQAdKVFixbNUdD+kqTZpLHfJeCvy/n8ywkCAABQANB1Zvf1fVTScSRxQAbc7YthGM4iCgAAQAFA1yiH4SWS/QZJvAimY4NY7yYIAABAAUBXGBwcnO2uvyeJg+gApvcuy+cLJAEAACgASLyBTOZPJYUkcVBmt2R/SwwAAIACgERbmssVJfsTkpgSry2H4RnEAAAAKABIrHYQXCmJG1iniLveSwoAAIACgEQqFArL5LqcJKbUBTwWFAAAUACQSJnY38M8nHou+2NSAAAAFAAkSnlxedClN5PEtHh9oVDIEwMAAKAAIDE8O/FOSf0kMS0yGfc3EQMAAKAAIDELVMneSgzTWLCkN5ICAACgACARymF4jqSjSWJaG8DLSktKLyUIAABAAcCMi93fQgqd+A6POQsAAAAoAJhZJyxcOFeyy0hi+rn8IlIAAAAUAMyo7bNnn27SXJKYfiadEIbhfJIAAAAUAMykM4mgc9/jQRycRgwAAIACAApAjzBrn0EKAACAAoAZUS6XD5X7SSTR0QrAGQAAAEABwMyI9+x5pWRZkuio5UQAAAAoAJiZCWfGYrTz5i9dtPQlxAAAACgA6DiXlpFC58V9u48lBQAAQAFA5wuAGwVgRnIPKAAAAIACgBlgYiE6EwVAHpICAACgAGAG1v9+JCnMQO7mh5ACAACgAKDz63/ZHGKYAW7zCAEAAFAA0FErjlwxlzk3U+t/pwAAAAAKADpr25xtXIYyQ0ycAQAAAJN6ZkOmXC63oD8Ilrm0TLEOM/N5MjtUrkNd3ie3lgV6Uu5Puds2BXrSpPV74nh9s9l8gqly8PrieI4HGYKYAe7i0isAAJDeAlAulw/V7vZqz/jZcp0g6ThJC933/gaTfPIf//UvTJr875P/Wz75n/ssUCkfPiTpPpnuMem2OAjW1Gq1J5k+B7oI7TepTRAzIAhkpAAAAFJVAAqFwglBHL9OsnN8YuKVCiz7Xwv8g7ZQ0kK5Vrv0Tmu3W6V8+H3Jb42D4Np6vX4PUwkAAAAUgGkWhuH8TGyvl+ltiv1U7fsh53T/sNOyklZJtiqI/X2lfHivu64K+rP/WqlUHmFaAQAAIKm68ibgMAyXF/P5qzOuB2X+KclPneEhHW+mK32itamYz199bD5/HFMLAAAAFICDdGw+f1wpn78q4/qJyd4iaSBhQxww2Vti2U/K+fzIsWF4IlMMAAAAFIADFIbh0cV8/upY9hPJ3iop6Y+SCVw2FLvWFfP5q8MwPJqpBgAAAArAC7NSrvC2p/3Ev9suWQpM9paM675iLnyX2HcBAAAAFIDnFobh8lIY3iHzf5N0RJfnPN9Mf18KwzVhGC5n2gEAAIAC8DTFMHxj4PqBXKenKm3X6RnXD4th+GtMPQAAAPR8AVgtZctheKW5Pm/S3JRmPttc/1oKw0+tWLGinykIAACAniwA+Xz+mE358Fvuek9PJO96x65t2+/I5/PHMA0BAADQUwWgUCjks253SDq5x/I/OSNbW16ypMRUBAAAQE8UgEKhsCxo+7dkOrYXD4BJBQ8y3yotKb2U6QgAAIBUF4BCofBLQex3yrSkx4/DMQrat7FxGAAAAFJbAMIwDIPYb5J0FIdBknRk7LqlNFgqEwUAAABSVQAGBwcPz7pulMQOuc8qAcq0biyXy0cSBQAAAFJRAMIwnDWQyVzvEhtiPScrxxOtkUWLFs0hCwAAAHR9AcjE+v8kO43of0EFkF41O9v/CZIAAABAVxeAcq7wepneTuz71QLeXszn30wQAAAA6MoCsDSXK7r5PxH5gXQA/WOxWFxKEgAAAOiqArBy5cq+WMEXJB1K5AdUAeYFrfjqlStX9pEFAAAAuqYAbHn00Xe66ZeJ+8C56Ze3PProO0kCAAAAXVEACoXCQsneR9QHw/7XsiVLFpEDAAAAEl8Agjj+G0mHEfVBOaSVyXyIGAAAAJDoAlDK50+R7C3EPAVcb53MEwAAAEhoAZD0AUlGzFPCzOz9xAAAAIBEFoBjw/BEyc4m4qnjrnOLS4qvIAkAAAAkrgC425+Ln/5P/QEL/L2kAAAAgEQVgEKhsMzllxHvNBQr+WWFQmEZSQAAACAxBSCI9Zvq4C7DvXbM9uYLAAAAJKIABJK/gWink79JUoYcAAAAMOMFoFwonCNpMdFOq2MKucJZxAAAAIAZLwAex68j1g4cuMDZXwEAAAAJKADSAmLtANclq6UsQQAAAGBGCwA65rBGofByYgAAAAAFoEdY288kBQAAAFAAeqUASBQAAAAAUAB6hZtOW819AAAAAKAA9AaT5m4aLIUkAQAAAApAj/BMaxkpAAAAgALQOweQAgAAAAAKQK9wMwoAAAAAKAC90wCUIwQAAABQAHqGHUIGAAAAoAD0zPrfDyUEAAAAUAB6hYszAAAAAKAA9BAKAAAAACgAPYSdgAEAAEABAAAAAEABAAAAACgAAAAAACgAAAAAACgAAAAAACgAAAAAACgAAAAAACgAAAAAACgAAAAAACgAAAAAACgAAAAAACgAAAAAACgAAAAAACgAAAAAAAUAAAAAAAUAAAAAAAUAAAAAAAUAAAAAAAUAAAAAAAUAAAAAAAUAAAAAAAUAAAAAAAUAAAAAAAUAAAAAAAUAAAAAoAAAAAAAoAAAAAAAoAAAAAAAoAAAAAAAoAAAAAAAoAAAAAAAoAAAAAAAoAAAAAAAoAAAAAAAoAAAAAAAoAAAAAAAFAAAAAAAFAAAAAAAFAAAAAAAFAAAAAAAFAAAAAAAFAAAAAAAFAAAAAAAFAAAAAAAFAAAAAAAFAAAAAAAFAAAAACAAgAAAACAAgAAAACAAgAAAACAAgAAAACAAgAAAACAAgAAAACAAgAAAACAAgAAAACAAgAAAACAAgAAAACAAgAAAABQAAAAAABQAAAAAABQAAAAAABQAAAAAABQAAAAAABQAAAAAABQAAAAAABQAAAAAABQAAAAAABQAAAAAABQAAAAAABQAAAAAAAKAAAAAAAKAAAAAAAKAAAAAAAKAAAAAAAKAAAAAAAKAAAAAAAKAAAAAAAKAAAAAAAKAAAAAAAKAAAAAAAKAAAAAEABAAAAAEABAAAAAEABAAAAAEABAAAAAEABAAAAAEABAAAAAEABAAAAAEABAAAAAEABAAAAAEABAAAAAEABAAAAACgAAAAAACgAAAAAACgAAAAAACgAAAAAACgAAAAAACgAAAAAACgAAAAAACgAAAAAACgAAAAAACgAAAAAACgAAAAAAAUAAAAAAAUAAAAAAAUAAAAAAAUAAAAAAAUAAAAAAAUAAAAAAAUABy4mAgAAAFAAeoVrGyEAAACAAtArTFsJAQAAABSAHuGiAAAAAIAC0DNMTgEAAAAABaB3CkDwECkAAACAAtAjXFpPCgAAAKAA9AhzCgAAAAAoAD2jnaEAAAAAgALQM+v/3bt3byQGAAAAUAB6gemHmzdv3kEQAAAAoAD0htuJAAAAABQACgAAAABAAUgXb2UHBtaSAwAAACgAvbD8d7tt/fr17AIMAACAmS0AZsZNqR1gss+RAgAAAGa+AMQ2QqzTbkd2dv9XiQEAAAAzXgBagY9KepJop49J13H5DwAAABJRAKIo2iUXP52eRrEHnyEFAAAAJKIASJIF+n9EO11sXa1Zu5UcAAAAkJgCUImiOyT9B/FOPVf8IVIAAABAogrA3qXq3xDvlFtfazS4vAoAAADJKwDVRuN6k+4n4qnsVPZ/JMUEAQAAgMQVAEmxu3G5ylSt/aXvVpv1z5IEAAAAkloAtHfB+h1inoIyFdg7xU//AQAAkOQCICmWx7/LwvVg+b/U6/XvkQMAAACSXgBUbTbXSf4vRP2iPWR9ff+TGAAAANAVBUCSMhMDfybpQeI+YC7T2yuVyiNEAQAAgK4pABs2b3jUTG+U1CbyA1r/f6QaRTeRAwAAALqqAEhSJYrWSPZhIt9ftm7WvHlc+gMAAIDuLACStKRR/1+SrSX2F/Rg2/x1Y2Nje4gCAAAAXVsA1kgt68tcJtdGon9eOwLTpVEURUQBAACAri4AklSpVB4xb18o6SHi/zltM71pYxR9lygAAACQigIgSZVNm6oeB8OSb+MQ7BO7/B2VKLqeKAAAAJCqAiBJtU2177v7pZQASdKEy99WazT+lSgAAACQygIgSbVm85seZ86U9HAPH4PdLn9DrdH4HNMRAAAAqS4AklTbVPuBt4PTXKr3YP5bJL+w1mh8hakIAACAnigAklQbr21sy0+V/Nu9ErxLP8p4vLLaaNzONAQAAEBPFQBJajQaP602GqvN9AGlfsdgv3rXxJ5TNzSbNaYgAAAAerIA7NWuRNH73ePzJT2Ywry3uOnXq43G2zZv3ryD6QcAAIBeLwCSJm8O7mtNvFSuT0mKU5G069/bpuNqUfQZph0AAAAoAM9y/wMPPFZtRv9dHv+ypP/o4owjl7+m2ozeEEXRg0w5AAAAUAB+gWqzua7aiE51+Vsk3ds90fq4yX/X+rLLa43G15lqAAAAoAAcwGq61mh8rtqIXmpuF0u2NsFjfdhd793dbi+tNBqfqFQqu5lmAAAASIpsl43XK836iKSRUi53qszeLtnlkhbM8LBabnajuX9m1rx5XxsbG9vD1AIAAAAFYApVm821ktaWy+XfVat1gcd6o0wXSTqkQ0NoS/q+5Ne2zT7H9f0vzGyPuzIEAQAAQAF48fZeYnO9pOtXS9nmkuJJFrRf7WZnmOt0SfOn6EvFJm2IZd8081vb0pooirYwhfZfRtrZIoYZ4a7tpAAAAFJRAJ5ujdTSptr3JX1f0kckqby4PKi+VlluZTc/VrHyMj9CsrmS5kqat/fXNklPumurmW01aUvsviGQ3d/OaL27r4+iaBdT5sWb6Ovbbu2YIGamAmwlAwAAkLoC8FwqD1TGJY1P9gPMpFqttq2UDwliJpb/Cp4iBQAAIHXPU4CQDm1JO4lhBr7RnTMAAACAAoCZwU+iZ4CbPUYKAACAAoDOMzUJYQZij7WBFAAAAAUAnV+IujaSQue1s1pPCgAA7Mfi2D3162MKADrcACgAneetww8/vEYOAAC8sNhtHgUAmNLvKqsQQsdbV23dunUT5AAAwH58apofkvbXSAFAR7na95FCx0P/D0IAAGB/PzctUQUgkO2hAKCrLWk2fyyJR1J29p3jdkIAAGA/mQ5N2Ih2UwDQ1dZILecn0h0Vm60hBQAA9ls+YePZRQFA9xdrs2+RQqd4pV6vN8gBAID9W6ZIOjZJA4opAEiDONYdpNAxNxEBAAD7Z9mSJcdIStQ9ACbbQQFA15tz6JzvSmJn2o68aejzpAAAwP5pBcGyxA3K/WEKALre2NjYHpm+TBLTrlppNL5DDAAA7Oda2+yXEjemQI9QAJAKJn2BFKY5Y9NnJTlJAACw385K3Oe5+0MUAKRCJYrulGsTSUyb2FuZzxIDAAD7Z7WUNderk/eJnuUSIKRngWrS54hhmn5aIPtqdbzKrssAAOyn8TB8haTDEveZPmBNCgBSoxXoo5qGR1tBimO7khQAANh/7nZOAof1YKVSeYoCgNSIouhBl3EWYKp/UmD6Rm1T7QckAQDAAVWANyXvQ10bp+OvpQBgZr/VAv2NpJgkptT/IQIAAPZfOQxPlnRc4tb/TgFACtXr9fUu/wpJTJnrKlG0hhgAANh/Lv1aIsflWk8BQCpl3d8j7gWYCjuz8j8kBgAA9t/g4OBsuX4lmcUkXkcBQCptaDZrkv8tSRwcM/31+kajThIAAOy/gUzff1MCn/4jyeMgmJYCkOWwIwl2Tkx8aHZf/1sl5UnjRanuarU+TAwAML1KpdJRardP8Vi/FJhybjpErpaZmrG03s1uq9frDZLqDuVyecD3tN4tS+LyX5WoEW2hACC1Nm/evKMUhr8v11dJ44BNBKY3j4+P7yQKAJh6K1as6N+1ffub5Hq7Wu3TJQVme7da37vfurtkksxdpXz+B272ySCb/fJ0PMIRUydutX7bTEsSOTjTtD3Rj0uAkBjVKLpOpk+TxAH+gMD1vo1R9F2SAICpX4KVwvBXd23dXpHrM5LO2L+1k73CXP/qE61Hirnw5nI+/z9KpdIS4kyW5YsXH2Guv0js57vpzun6uzkDgERpS+/KSq9y6ZdIY7+sqTUj7p8AgClWLBZzFseflev0g7g8pN9M57nsPLXaHy/lw7vddX0m0A0bo+hHpDyzJjJ9fytpQWLbZytz63T93ZwBQKJEUbRLHr9J0g7SeEGNtumNk70JADBVSvn8mUE7vluu06dyPSfp5Wb6QOy6u5QPo1I+/7FiLnf2ypUr+0i9wwUvn3+NTG9P8pKoOl6tUADQMyrN5r0y/brYIOwXecI8viiKogeJAgCmcPEfhpdKdqNLh0/zl8pL9ntmwa1bHn3s4VI+/HwpDH+lXC4fylGYXksHBxeb7F+SPUq/dTr/dgoAEqkaRf9u8t8jiee0xz2+otJs3ksUADB1ymG4Wq4vShro8JeeL+mNcn2R+wam18qVK/vamb5/l7Qw0ct/6UYKAHpSpdH4pLmuJIlnaMv0tlqz+U2iAICps3RwcLG7vjQDi/9n+9l9A59Qq90s5cOxchheWcwVT5MS+bDKbmJbHnnsnyQ/NeHj3LFrYuImCgB6twQ0oz/jyUD77DG3N1aj6N+JAgCmVpzNfkbSkQkc2vHueo9Z/K1SPqxP3jdQPIf7Bg588V/K5z8q068mf6Qa3bx587TeC0kBQNJ5NYr+u5k+0OM57JDpkkqzfg1TAgCmVjGfv9xd53bBUPfeNxB/4+n3DRSLxcM4ir94vVsKw3+UrCsuLbbYvjzdX4PHgKIrSkAlit5fyhUek/nf92Bx3eIeDNcatW8zFQBg6tdbJvuLLhz3fE3eN/BGa8d7irlwTWB+vWezI9VqdROHddKyZcsOae3a/W9yXdYlS55tc3bv/Nq0NyKmBrpFtVn/B3N7g+TbeuZTSfqx2plX1pos/gFgOhxbKJwu6YQufxlPv2+gUcqH64q58C+ODcMTe/rY5vPHtXbt/q7ULYt/SdIX73nooe0UAOBpKs36NXEQvMKlH6X9tbr8szsm9pwync8BBoBeF7tfnrKX9Oz9BhqlMPxUOVcYXrFiRX+PHNaglCu8I5b9QNJxXfXZH2c6ct8jBQBdp16vr49Nq1z2yZQu/bfJ7bdqjcZbp/smIADoZStWrOiX6/Upf5k5ud7h5jfs2rb9obTfN1BeXB4sheEamX9K0pyu+vSXflTbVPs+BQB4HlEU7ao16r/jHgxLqqXldZl81DOZFdVmnScfAcA027V9+2slHd1DL3m+9u43YO344bTtN1DM51/j2Ymp3sG5k4uAjn32UwDQ1WrN2uiseXOPc9fvd/m9AQ/K7VcrjcZwrVZrcmQBoANiXdrDrz41+w0Ui8XDSmH4KZONSPaSLj0ej83bufMqCgCwn8bGxvbUmtFH4yB4qck+J3mre8q+HpfsfdlZA0urzfpVHE0A6Oib8BmEsE837jdgpVzhbdaO75PrHerijdLc9Q+duPn3Z3gMKFKjXq83JL0lDMM/z0h/INdvKLnX/2010ydb0pVRVN/C0QOAziqXy4f6ROtoknhOP9tv4Pe2PPrYllI+vFGm6z0IbqrVak8mYYClfP5Ml31I8lelIO8d2Vb/Jzr5BSkASJ0oiiJJ7yqVSn/lE+3fNvO3SFZOxOBM33fpM0E2+7lKpfIURwsAZkYcx0cbMeyP+XrafgPlMLxD7tfN0H4DVi4UzvXY/1TS6vQcP/+XDZs3PEoBAKZAtVp9WNIHJH2gUCj8cqbtb3TTr0g6psNDeUCyL5q3P1NpNMc4MgCQiAIQZIjhQPVP7phs56rV/ngpH97trus9Y9fX6/UfT9cXLRQKC63tbzDTb3vsy9IUqEvbY7P/0+mvSwFAT6jX69+T9D1Jf1TO5Y5zZU5V4OfI/cypvmHIpe0m/w93u9UU31ptNn84+a8BAIlZybZaW9sZlkEH4Wf7DbzcYv9AKR/eK/nn4yAYrdfr9xzs597SXK4Ym13obsOK/RyZMukM0f9vFDUepAAA0yuuNJtjksYkfVqShWG4LCMtl1tZ5sfKVZY8J9lhLs0xae6z/o4Jk7a6tEWmx9x9fSDdF0vrA/f7ljSbG9ZILaIGgOTaMD7+01I+3COpnzSmxPGSfTCI/YOlfPigydbG5j9QHPwkUKs+sPOQxtgjYz/3tL5cLregXzpGnil7oGVyXynTqraU21czUssftb6+v5mJr0wBQK/zKIrul3T/L/pNuVxugST19/fvqFQqu3/R72XbXgDoCrFMP5brlUQx5Y52+eXmulwWyxVo15ztKuXDWNLTbiL2QyTLuiTZ3hMGPXRjhrt9sDpD9wNSAID90Gw2nyAFAEjbCszulJwC0DmBpAX/9X97+jbse3LN6BO1GTwQAAAAPcfMryUFzET1lPy318zg5cIUAAAA0JMqUfRdTd4TBnRy/f8v1UbjrpkcAQUAAAD07ErM3D5MDOigh/parffO9CAoAAAAoGdVmvXPyfR9kkAnmNtv3v/AA49RAAAAM+2nkmpSzM3u6EVxbPa7kvP4Zkwz/+dKsz6ShJFQAAAkSuDBHlLoLJNfXm1EpWqj8RHSQC+q1+vfc7P3kQSmUXXWjnl/kJjPWo4HgCRxi7eTQoczj7NbSQG9rhZFH5br30gC02CPmd7yXBuhUQAAQFIQBBSATheAPn+KFAD5/COP+E1JXyQKTCWT/0Elir6TqM9aDguAJGm3bAcpdFar1eIMACBp3bp1E9VG9GbJ/0aSkwgOulXKP1tpND6ZtHFRAAAkSiZocwagw52r2GxSAID/ElcbjXe7fFiuTcSBg3DPromJ30riwCgAAJK1Gs1kNpNCRzXWzOBulEBS1RqNr83dvfM4yd4n6SESwQHa7JlgePPmzYk8q00BAJCsD91a7UlJW0iiY9YTAfDc7nnooe3VRv2DbVNopktlukoSj8vFC9kamF5Tq9WaSR1glmMEIIHqkk4ihulnTgEAXkgURbskXb/3V6aYK66yIL5CrtdJWkRCeJoJM12xMYp+lORBcgYAQFILADogDigAwAFq15q1b1ej6F3VRrREHp8m2Uec9y1Isdx+oxJFNyd9oJwBAJBAXpOMGDqRtNkPSQF48Qu+arO5VtJaSX9czuVWKAiucLchyVcST2+9nbrpd2qN+lXdMFgKAIDkMVvHA/g64sl6vb6OGICpUWk2xySNSXr/sny+MOF2sZldIfkp4qcaqV78m/z3qlHjH7tlwFwCBCBx2tJ3SKEjn1h3TsYNYKqtbzTqtWb00Wqjfpqymbxc75K0hu+59L2VyvX7lUbjE900aAoAgMSJoiiSxONAp/8D4HZSAKZftVrdVG1GH6s2ojN3t1tHye1XTT4qaTfpdLW2yd5RbUYf68L3fwBIpO8RwfTyduYbpAB01vj4+OPVZv2qSqMxvHNiz+HmdrHkV0tiQ77ustvlv1Jp1P+5GwfPPQAAEslMd7rrUpKYroD1n9VN1Z8QBDBz9m4SNSJpZHBwcPasbPY8l14r17CkBSSUWFvi2C6ub4q+1a0vgAIAIJFa0lcz0kfEjXPTwmN9jhSA5BgfH98p9hrohnfPirlfUt/UvLebXwWXAAFIpCiKIpd+TBLTIra+zOeJAUisZ+818AozfUDSBqKZOWb6xoT7L1ea3b34lzgDACDJb7ayr0h+IklMuTXVanUTMQDdUdirzeY6Seskvb+cz5/k0mWSvVbSCuLp2AfSxwaj6I/WSK00vBwKAIDkvt96+ytuwV+SxFTnan9PCkB3qjQad0u6W9JfsNfAtLvXTNfEreBztfHaxmqq+gwAJFgpH66VdApJTJn7qo3opZLirpwPYXiPXC/jMHberB1zDxl7ZGwbSST0e6NUWqKJ+EKzeNhl50vqI5UXpSnTdYrjq/aeeUklzgAASDQ3fdycAjBlecr/qlsX/wCe397L+j4t6dODg4OHDwR9Q2bxFS47V9IACf1Cj8n0ZY+Dq2vN2lop/XvRUwAAJNrsuXO/vGvb9p9KOoY0Dlot12j8e40cgFQbHx9/XNJVkq4qFouHKY4vkvtrJbvQpLkktHfRL/+KpC9UG4071GM/GKEAAEi0sbGxPcVc+CkzvZ80Do65/emalNzABmA/W3+t9qSkL0j6QhiGs7KxneuBD2lyn5WjeiyOJyW/wTy4ZuCQOTePjY3t6dnPA741ACRdGIbzM66KpCNI40W/23+rGkVnqMtPbXMPwMzhHoB0WblyZd/jjzy+OpC/VqZLlN6zrE+4/GuB2bXKZm+qVCq7OfoUAADdsvDLF/5Y8r8hiRfDW3EQrKzX6/d0/TygAFAAMB2CUi63Spa5TPKLJB3X5a/nAZddL7evLjhywR3r1q2b4BBTAAB0oTAMZ2Vc90vKk8YBvtG7/r7SjP4gFUWQAkABwLTL5/PHZKSzAtlZsXSmSYVkj9hbkr7jbt/wjN1Ur9e/rx64kZcCAKAnlHOFt7j51SRxQO7dObHnlZs3b95BAQAFAC/Gsny+MGG22mKdIdPpkoozveI3aX0s+2Zg/g1ls7dXKpWnOFIUAAApfc8q5cNRSRcRxX7ZHZhO3hhFP0rLC6IAUAAw85YODi5uZTJnmNvpMj9NsuMkZabxSz4m6bvu+p4F+u5EHH+32Ww+wZF48XgKEIBu4tm4/ZvtIPOfLh1OHC/QluR/tDFq/IgkAEylDePjD0j6/N5fGhwcnD07mz0hlk50t6WB4qUuK2nyxuL5+/n2vk1SJLeqzCpuXlEcVPqsXV3faNRJfao/HwCgy3Ap0H58lMqvrTUar1fKroPlDMDM4QwAXowwDGcFQXCUpFnWah3injWzlktSnMls62+1trYHBh7j6TydxRkAAF2n0qx/tpQPL5L0RtJ4Tv+xp91+m7gJDsAMi6Jol6QmSSRLQAQAulHb9OuSvkMSP6eqbObS8fHxnUQBAKAAAEiNKIp2teSvlWsTaezziMXt86vV6sNEAQCgAABInUaj8dMg0MWStpKGNpvHZ1Y2baoSBQCAAgAgtTZG0Y/k8ZmafExcr4rUzpxRaTbHmBEAAAoAgNSrNpvrAtM5kh7pwZd/n7Wyp1fHqxVmAgCAAgCgZ2yMoh8pzpwl6ae98prdNNI2nVJ5oDLODAAAUAAA9JzqpupPrC/7S5JuS/lLbZvpA7UoujSKoi0ceQAABQBAz6pUKo/Mf8kRF8j0sZS+xIfc4/MrUfR+STFHHABAAQDQ89atWzdRjaJ3mduvKD33BbhJn+lrTayoNZvf5CgDACgAAPAslWb9S23T0r1nA7r4p+VecQ/OqzSiX7//gQce48gCACgAAPA8oijaUo2idwWBnSnTf3bZ8B+R7N3W1/fSWrN2K0cTADAVskQAoBdsrNfvlPRL5VxhyAN/n1yvTPBwHzPTx5XN/l2lUnmKowcAoAAAwIvjlWZ9RNJoMVd8jRT/iZlOl2QJGd5P3OxfZm+f+89jj4xt43ABACgAADBFK+1aszYqabRUKi3xifabzPRrkpbNwFi2yPQlj4Ora83atzk0AIDpZkQAAJOKS4qvCDLxuR7rDDedZtLcafgybZd+YLJbpfibs+bNWzs2NraH9PdPKQzvketlJNF5s3bMPYQzU0A6cAYAAPaqbar9QNIPJH1o5cqVfVseffSVcnuFmy2V+7EyHWtSTlJmP//KJyTdb9J97lrv5mOx2Vo27wIAUAAAIGHWrVs3Iemuvb/2KZfLAxMTE4f3xfEcN5sfZDJz3X12HAdtz/hT2Tje6q2+rfFAvLVWqz1JkgAACgAAdLFKpbJb0k9JAgBAAQAAYLq5nBA6arOZrpYkHaU9qdlXG6AAAADQNXYQQUfdX4mi9xIDkC7sBAwA6Bpm2koKHcVGdAAFAACAmeNOAehw4uQNUAAAAJhBJp5D38nlvwIKAEABAABgJlek/jAhdHCRYM5tvwAFAACAmSwAwQZC6JxYWk8KAAUAAIAZY4FTADq5SHCnAAAUAAAAZk6Ln0h3kmdmzdpIDED6GBEAALpJKR8+IWk+SUz7+n+82mgsIQcgfTgDAADoNv9BBJ1Y/9taQgAoAAAAJGBhqjWE0JEVwu2EAFAAAACY+fW/ByxMO5FzQM5AWnEPAACg22RK+fBRcR/AdNpcbUSLiQFIJ84AAAC6TVumbxDDdPKvkQFAAQAAIEk+TwTTuDgIgs+SAkABAAAgMWbNnft1SY+RxLRobqzXv00MAAUAAIDEGBsb2yP5V0hiOthnJcXkAFAAAABImv9HBFPO2+ZXEwNAAQAAIHGqjcZdku4iiSl1fRRF9xMDQAEAACCZTH9DCFMZp/81KQC98L0OAEAXf46V8uFPJB1PFAfttmojOpsYgPTjDAAAoJu5m/6WGKYkyr8iA6A3cAYAANDtglI+/13JXkEUL9p11UZ0GTEAPfKmSQQAgC4XS3qXJCeKF2VnVv6HxABQAAAA6Bp7nwj07yRx4Mz01+sbjTpJABQAAAC6SzbzbklPEcSB8MquVuvD5AD0lgwRAADS4Iknnnjq8MMWbJaJa9n3z0RgNhw1mxFRABQAAAC6swQ8ueXHh8+fv1zSS0njhdh7K43oGnIAeg+XAAEAUqVt+m1JTZJ4fu66pdqo/x1JABQAAAC6XhRFWyR/o6RdpPGcqkF/9i2afHoSgB7EJUAAgNR54sknNx1x2IINMr1O7HnzdI/FgZ1dq9U4QwJQAAAASJfHn9xy74LD5ruZziQNSdIueXxRrdG4mygACgAAAKn0xJNb7jz8sPl5mU7s8SgmJH9jtdm8hVkBgAIAAEh7CRg5Yv78JZJO6tEIdrv8jbVG46vMBgAUAABAL/DHn9wycvj8w46Q7Jd76oVL293tknoz+hrTAAAFAADQU5548smbDl8wf4GkV/XIS35EcXBefVP9Wxx9ABQAAEBvloAtW246/LAFP5Xp/HR/Btq6tuncerN+L0cdwLOxDwAAoKdUm/VPy+OzJD2YzrW/Pj1r3pxToiiKONoAnvttAgCAHlQqlZaoFX9B8lNT8oH+eGz63VoUfYGjC4ACAADA83wOlnKF35TFH5FsXhd/ml+jTOZ3q9XqwxxSABQAAABewLJ8vtBS8E+Sn91lQ6+Z6X9UouhmjiIACgAAAAeomCueYxZ/RNIJCR/qw+76uz1x62Pj4+M7OXIAKAAAALx4QTlXuNzNr5RUZOEPgAIAAEAPKJfLA/HExOvM7LfkOn0Gh9KW9A2Z/p9ls9dVKpXdHB0AFAAAAKazDORyx3sQvEPuKzr1Nd0tDgKtCVqtqzaMjz/AUQAAAAAAAAAAAADw/P5/vYQrMvO30BwAAAAldEVYdGRhdGU6Y3JlYXRlADIwMTgtMTAtMTVUMjE6NTg6MDcrMDA6MDDAfZvMAAAAJXRFWHRkYXRlOm1vZGlmeQAyMDE4LTEwLTE1VDIxOjU4OjA3KzAwOjAwsSAjcAAAAABJRU5ErkJggg==;" vertex="1" parent="1">
          <mxGeometry x="1010" y="340" width="60" height="60" as="geometry" />
        </mxCell>
        <mxCell id="0uy8gQg5VM6Hy0kcx16f-39" style="edgeStyle=orthogonalEdgeStyle;rounded=0;orthogonalLoop=1;jettySize=auto;html=1;entryX=0.019;entryY=0.613;entryDx=0;entryDy=0;entryPerimeter=0;" edge="1" parent="1" source="0uy8gQg5VM6Hy0kcx16f-27" target="0uy8gQg5VM6Hy0kcx16f-28">
          <mxGeometry relative="1" as="geometry" />
        </mxCell>
        <mxCell id="0uy8gQg5VM6Hy0kcx16f-42" value="Vnet-1" style="text;html=1;strokeColor=none;fillColor=none;align=center;verticalAlign=middle;whiteSpace=wrap;rounded=0;" vertex="1" parent="1">
          <mxGeometry x="636.9" y="240" width="60" height="20" as="geometry" />
        </mxCell>
        <mxCell id="0uy8gQg5VM6Hy0kcx16f-43" value="Data Lake Resource Group" style="text;html=1;strokeColor=none;fillColor=none;align=center;verticalAlign=middle;whiteSpace=wrap;rounded=0;" vertex="1" parent="1">
          <mxGeometry x="592.5" y="190" width="157.5" height="20" as="geometry" />
        </mxCell>
        <mxCell id="0uy8gQg5VM6Hy0kcx16f-44" value="Data Lake Subscription" style="text;html=1;strokeColor=none;fillColor=none;align=center;verticalAlign=middle;whiteSpace=wrap;rounded=0;" vertex="1" parent="1">
          <mxGeometry x="542.5" y="140" width="157.5" height="20" as="geometry" />
        </mxCell>
        <mxCell id="0uy8gQg5VM6Hy0kcx16f-45" value="Azure" style="text;html=1;strokeColor=none;fillColor=none;align=center;verticalAlign=middle;whiteSpace=wrap;rounded=0;" vertex="1" parent="1">
          <mxGeometry x="510" y="80" width="47.5" height="20" as="geometry" />
        </mxCell>
        <mxCell id="0uy8gQg5VM6Hy0kcx16f-46" value="Kubetnetes Cluster" style="text;html=1;strokeColor=none;fillColor=none;align=center;verticalAlign=middle;whiteSpace=wrap;rounded=0;" vertex="1" parent="1">
          <mxGeometry x="90" y="170" width="110" height="20" as="geometry" />
        </mxCell>
        <mxCell id="0uy8gQg5VM6Hy0kcx16f-47" value="Pod-1" style="text;html=1;strokeColor=none;fillColor=none;align=center;verticalAlign=middle;whiteSpace=wrap;rounded=0;" vertex="1" parent="1">
          <mxGeometry x="101" y="220" width="49" height="20" as="geometry" />
        </mxCell>
      </root>
    </mxGraphModel>
  </diagram>
</mxfile>
